<svg height="512pt" viewBox="0 -70 512 512" width="512pt" xmlns="http://www.w3.org/2000/svg"><path d="m124.171875 205.859375v17.960937c0 4.226563 3.429687 7.652344 7.65625 7.652344s7.652344-3.425781 7.652344-7.652344v-17.960937c0-4.226563-3.425781-7.652344-7.652344-7.652344s-7.65625 3.425781-7.65625 7.652344zm0 0"/><path d="m476.746094 49.4375c-2.878906-3.09375-7.722656-3.269531-10.816406-.394531-3.097657 2.878906-3.273438 7.722656-.398438 10.820312 3.285156 3.535157 6.324219 7.246094 9.117188 11.109375h-49.574219c-4.226563 0-7.65625 3.425782-7.65625 7.652344s3.429687 7.65625 7.65625 7.65625h58.945312c8.273438 16.226562 12.671875 34.289062 12.671875 52.890625v99.167969h-233.035156v-78.519532h75.867188c4.226562 0 7.65625-3.425781 7.65625-7.65625 0-4.226562-3.429688-7.652343-7.65625-7.652343h-75.867188v-5.339844c0-64.246094 52.269531-116.515625 116.515625-116.515625 22.757813 0 44.804687 6.558594 63.753906 18.972656 3.535157 2.3125 8.28125 1.328125 10.597657-2.210937 2.316406-3.535157 1.328124-8.28125-2.210938-10.597657-20.960938-13.730468-45.261719-21.113281-70.386719-21.441406-34.296875-15.390625-87.003906-2.273437-95.367187-.03125h-91.511719c-5.386719-1.570312-27.832031-7.347656-65.816406-7.347656-34.804688 0-67.550781 15.121094-92.203125 42.582031-23.53125 26.214844-37.027344 61.421875-37.027344 96.589844v184.308594c0 27.117187 22.0625 49.179687 49.179688 49.179687h413.640624c27.117188 0 49.179688-22.0625 49.179688-49.179687v-184.308594c0-33.40625-12.519531-65.277344-35.253906-89.734375zm-186.988282-27.09375c1.5625-.429688 22.171876-5.980469 44.964844-6.917969-50.363281 18.554688-86.378906 67.023438-86.378906 123.746094v99.167969h-35.34375v-99.167969c0-23.890625 7.03125-49.347656 19.292969-69.84375 13.933593-23.289063 33.800781-39.535156 57.464843-46.984375zm-274.449218 116.828125c0-31.441406 12.070312-62.921875 33.113281-86.363281 21.707031-24.179688 48.554687-37.34375 91.117187-37.34375-10.539062 3.453125-20.363281 8.007812-29.433593 13.644531-20.699219 12.867187-37.050781 31.4375-47.28125 53.699219-1.765625 3.84375-.082031 8.386718 3.761719 10.152344 3.839843 1.769531 8.386718.085937 10.152343-3.757813 8.972657-19.527344 23.304688-35.8125 41.449219-47.089844 20.769531-12.910156 46.246094-19.457031 75.726562-19.457031h60.894532c-14.035156 9.765625-26.097656 22.84375-35.652344 38.8125-13.84375 23.140625-21.464844 50.738281-21.464844 77.707031v99.167969h-24.820312v-27.75c0-22.628906-18.410156-41.042969-41.042969-41.042969-22.628906 0-41.042969 18.414063-41.042969 41.042969v27.75h-24.820312v-99.167969c0-6.800781.570312-13.632812 1.691406-20.308593.699219-4.167969-2.113281-8.117188-6.28125-8.816407s-8.117188 2.113281-8.816406 6.28125c-1.261719 7.511719-1.902344 15.195313-1.902344 22.84375v99.167969h-35.347656zm142.25 71.421875v27.746094h-51.464844v-27.746094c0-14.1875 11.542969-25.734375 25.734375-25.734375 14.1875 0 25.730469 11.546875 25.730469 25.734375zm-108.378906 146.753906c-18.675782 0-33.871094-15.191406-33.871094-33.867187v-69.832031h35.46875v69.832031c0 13.117187 5.171875 25.042969 13.574218 33.867187zm197.6875 0c-18.675782 0-33.867188-15.191406-33.867188-33.867187v-41.996094c0-4.226563-3.429688-7.65625-7.65625-7.65625s-7.65625 3.429687-7.65625 7.65625v41.996094c0 13.117187 5.175781 25.042969 13.574219 33.867187h-111.308594c-18.671875 0-33.867187-15.191406-33.867187-33.867187v-28.542969h29.894531c4.226562 0 7.65625-3.429688 7.65625-7.65625s-3.429688-7.65625-7.65625-7.65625h-29.894531v-25.972656h182.257812v69.828125c0 13.117187 5.171875 25.042969 13.574219 33.871093h-15.050781zm215.953124 0h-165.296874c-18.675782 0-33.867188-15.191406-33.867188-33.867187v-69.832031h233.035156v62.175781h-39.851562c-4.226563 0-7.652344 3.429687-7.652344 7.65625 0 4.226562 3.425781 7.65625 7.652344 7.65625h38.96875c-3.480469 15-16.945313 26.210937-32.988282 26.210937zm0 0"/></svg>