<svg height="512pt" viewBox="-36 0 512 512" width="512pt" xmlns="http://www.w3.org/2000/svg"><path d="m246.492188 369.230469c9.707031 0 19.414062-3.140625 27.511718-9.421875 3.273438-2.539063 3.867188-7.25 1.328125-10.523438-2.535156-3.273437-7.25-3.871094-10.519531-1.332031-10.789062 8.367187-25.855469 8.367187-36.640625 0-3.273437-2.539063-7.984375-1.941406-10.523437 1.332031-2.539063 3.273438-1.945313 7.984375 1.328124 10.523438 8.101563 6.28125 17.808594 9.421875 27.515626 9.421875zm0 0"/><path d="m160.710938 354.84375c1.640624-2.496094 4.128906-2.765625 5.121093-2.765625.996094 0 3.445313.300781 5.125 2.765625 3.503907 5.144531 9.117188 2.984375 10.386719 2.152344 3.460938-2.273438 4.425781-6.925782 2.148438-10.386719-3.917969-5.96875-10.519532-9.53125-17.660157-9.53125-7.136719 0-13.738281 3.5625-17.660156 9.53125-2.273437 3.460937-1.308594 8.113281 2.152344 10.386719 3.460937 2.273437 8.113281 1.308594 10.386719-2.152344zm0 0"/><path d="m322.023438 354.84375c1.640624-2.496094 4.128906-2.765625 5.125-2.765625.992187 0 3.441406.300781 5.121093 2.765625 3.503907 5.144531 9.117188 2.984375 10.386719 2.152344 3.460938-2.273438 4.425781-6.925782 2.148438-10.386719-3.917969-5.96875-10.519532-9.53125-17.65625-9.53125-7.140626 0-13.742188 3.5625-17.660157 9.53125-2.277343 3.460937-1.3125 8.113281 2.148438 10.386719 3.460937 2.273437 8.113281 1.308594 10.386719-2.152344zm0 0"/><path d="m418.707031 287.15625c-12.503906-24.617188-30.371093-46.625-51.871093-63.957031 9.371093-12.140625 12.800781-28.550781 7.714843-44.207031-3.316406-10.199219-9.742187-18.53125-17.886719-24.296876l19.015626-54.984374c4.210937-12.175782 1.246093-25.460938-7.738282-34.671876-9.027344-9.253906-22.300781-12.5625-34.644531-8.636718-20.265625 6.449218-41.109375 10.589844-62.226563 12.40625 2.15625-17.300782-4.890624-35.054688-13.605468-45.765625 7.753906-5.214844 16.921875-8.042969 26.359375-8.042969 17.34375 0 33.265625 9.480469 41.554687 24.738281 1.359375 2.5 5.5625 5.578125 10.171875 3.007813 3.617188-2.015625 4.988281-6.53125 3.011719-10.167969-10.917969-20.097656-31.890625-32.578125-54.738281-32.578125-13.511719 0-26.609375 4.40625-37.34375 12.460938-10.40625-7.820313-23.332031-12.460938-37.320313-12.460938-31.820312 0-58.125 24-61.800781 54.847656-8.308594.472656-16.269531 3.988282-22.320313 10.191406-8.984374 9.210938-11.949218 22.496094-7.738281 34.671876l19.011719 54.957031c-5.878906 4.152343-10.699219 9.53125-14.171875 15.796875-15.6875.054687-29.851563 8.019531-38.28125 20.371094-22.109375 11.496093-53.789063 33.324218-79.25 71.996093-11.65625 17.707031 1.742187 34.085938 7.875 38.101563 4.84375 3.167968 9.984375 4.789062 15.035156 4.898437-1.179687 4.238281-2.257812 8.609375-3.21875 13.109375-1.535156 7.207032-.171875 14.574219 3.84375 20.75 4 6.15625 14.300781 12.136719 26.441407 12.5-.925782 7.671875-1.394532 15.402344-1.394532 23.136719 0 23.25 4.191406 43.820313 12.457032 61.132813 1.289062 2.695312 5.222656 5.851562 10 3.535156 3.726562-1.804688 5.320312-6.261719 3.539062-10-7.296875-15.277344-10.996094-33.671875-10.996094-54.667969 0-28.386719 6.824219-56.714844 19.738282-81.925781 11.855468-23.144532 28.84375-43.742188 49.273437-59.820313 3.636719 2.460938 7.664063 4.46875 12.046875 5.894531 31.65625 10.285157 64.371094 15.5 97.242188 15.5 32.871093 0 65.585937-5.214843 97.242187-15.5 4.378906-1.421874 8.40625-3.429687 12.042969-5.890624 20.589844 16.199218 37.691406 37.003906 49.554687 60.363281 12.914063 25.421875 19.460938 52.804687 19.460938 81.378906 0 45.242187-16.578125 76.832031-50.679688 96.574219-29.167969 16.886718-70.914062 25.097656-127.621093 25.097656-72.800782 0-121.773438-13.722656-149.714844-41.953125-2.914063-2.945313-7.660156-2.96875-10.605469-.054687-2.941406 2.914062-2.96875 7.660156-.054687 10.605468 30.90625 31.222656 83.363281 46.402344 160.375 46.402344 59.417968 0 103.621093-8.867188 135.136718-27.113281 38.59375-22.34375 58.160156-59.203125 58.160156-109.558594 0-30.523437-7.289062-61.011719-21.082031-88.171875zm-209.546875-272.15625c26.054688 0 49.25 24.464844 46.648438 54.710938-31.667969.007812-66.304688-4.117188-93.628906-12.539063 2.542968-23.675781 22.640624-42.171875 46.980468-42.171875zm-188.464844 273.378906c-2.777343-1.816406-8.800781-9.265625-3.554687-17.300781 18.332031-28.085937 40.359375-46.511719 58.855469-58.367187-.007813.0625-.015625.121093-.023438.179687-.175781 1.996094-.214844 3.976563-.136718 5.9375-14.347657 15.414063-31.488282 38.78125-43.152344 70.867187-2.929688 1.472657-6.984375 1.957032-11.988282-1.316406zm53.882813-1.8125c-7.996094 15.613282-13.832031 32.335938-17.367187 49.539063-2.390626 1.226562-5.28125 1.503906-8.644532.796875-3.246094-.683594-11.417968-4.421875-9.597656-14.828125 6.804688-38.875 25.554688-66.730469 41.179688-85.457031 3.316406 7.128906 8.421874 13.378906 14.914062 18.070312-7.835938 9.945312-14.722656 20.628906-20.484375 31.878906zm30.261719-43.355468c-9.476563-6.3125-14.949219-17.375-13.921875-29 1.273437-14.457032 12.175781-25.789063 25.8125-28.25-2.242188 13.445312 1.429687 26.902343 9.425781 37.25-7.585938 6.117187-14.714844 12.8125-21.316406 20zm234.257812-18c-30.15625 9.796874-61.3125 14.765624-92.605468 14.765624-31.292969 0-62.453126-4.96875-92.609376-14.765624-17.304687-5.625-26.300781-24.121094-21.183593-41.582032 7.449219-25.441406 33.199219-23.914062 41.582031-21.1875 28.925781 9.398438 58.792969 13.070313 88.773438 10.914063 4.132812-.296875 7.242187-3.886719 6.945312-8.019531-.296875-4.128907-3.878906-7.234376-8.019531-6.941407-28.039063 2.015625-55.988281-1.421875-83.0625-10.21875-9.570313-3.109375-19.636719-3.136719-29.046875-.195312l-18.390625-53.171875c-2.382813-6.882813-.773438-14.09375 4.300781-19.296875 5.113281-5.242188 12.351562-7.042969 19.359375-4.8125 29.5625 9.40625 60.296875 14.175781 91.351563 14.175781 31.054687 0 61.789062-4.769531 91.351562-14.175781 7.011719-2.230469 14.246094-.429688 19.359375 4.8125 5.074219 5.203125 6.683594 12.414062 4.300781 19.296875l-18.398437 53.199218c-9.15625-2.851562-19.242188-3.015624-29.039063.167969-6.902344 2.242188-13.976562 4.164063-21.019531 5.710938-4.046875.886719-6.605469 4.886719-5.71875 8.933593.890625 4.046876 4.890625 6.605469 8.933594 5.71875 7.523437-1.652343 15.070312-3.703124 22.441406-6.097656 17.304687-5.625 35.960937 3.882813 41.582031 21.1875 5.621094 17.304688-3.882812 35.957032-21.1875 41.582032zm0 0"/></svg>