<svg height="512pt" viewBox="0 -11 512.00018 512" width="512pt" xmlns="http://www.w3.org/2000/svg"><path d="m495.429688 216.734375-49.96875-69.289063c-6.089844-8.445312-13.699219-15.769531-22.351563-21.597656.140625-.078125.277344-.171875.417969-.25l8.6875-4.75c5.691406-3.113281 9.46875-8.566406 10.367187-14.960937.894531-6.359375-1.265625-12.820313-5.777343-17.28125-2.945313-2.910157-7.691407-2.882813-10.605469.0625-2.910157 2.945312-2.886719 7.695312.0625 10.605469 1.15625 1.144531 1.703125 2.835937 1.46875 4.527343-.136719.972657-.671875 2.769531-2.714844 3.886719l-8.683594 4.75c-9.941406 5.4375-18.070312 13.566406-23.507812 23.507812l-4.75 8.6875c-1.367188 2.496094-3.71875 2.765626-4.667969 2.765626-.945312 0-3.296875-.269532-4.664062-2.765626l-4.75-8.6875c-5.4375-9.941406-13.566407-18.070312-23.507813-23.507812l-8.6875-4.75c-2.496094-1.367188-2.765625-3.71875-2.765625-4.667969 0-.945312.269531-3.296875 2.765625-4.664062l8.6875-4.75c9.941406-5.4375 18.070313-13.566407 23.507813-23.507813l4.75-8.6875c1.367187-2.492187 3.71875-2.765625 4.664062-2.765625.949219 0 3.300781.273438 4.667969 2.765625l4.75 8.6875c2.453125 4.492188 5.488281 8.652344 9.015625 12.363282 2.855468 3.003906 7.601562 3.125 10.605468.269531 3.003907-2.855469 3.125-7.601563.269532-10.601563-2.632813-2.773437-4.894532-5.875-6.730469-9.230468l-4.75-8.683594c-3.5625-6.519532-10.394531-10.570313-17.824219-10.570313-7.429687 0-14.261718 4.050781-17.824218 10.570313l-4.753907 8.6875c-3.125 5.714844-7.457031 10.621094-12.667969 14.429687l-33.675781-56.074219c-9.800781-16.316406-28.84375-24.402343-47.386719-20.125l-113.601562 26.195313c-18.542969 4.277344-32.117188 19.890625-33.78125 38.847656l-4.378906 49.890625-43.121094-21.011718c-12.246094-5.96875-26.566406-5.40625-38.308594 1.5-11.742187 6.910156-19.1875 19.152343-19.917968 32.753906l-13.929688 258.765625c-.84375 15.71875 6.683594 29.988281 20.132812 38.167969 6.8125 4.144531 23.273438 12.464843 43.144532.3125l119.660156-70.402344c2.726562 10.003906 7.257812 19.574218 13.515625 28.246094l49.96875 69.292968c11.75 16.292969 28.890625 28.195313 48.261719 33.511719 7.632812 2.097656 30.304687 7.523437 58.605468-4.179687l30.90625-13.441407c3.800782-1.652343 5.539063-6.070312 3.886719-9.871093-1.652343-3.796876-6.070312-5.539063-9.867187-3.886719l-30.90625 13.445312c-13.214844 5.746094-27.914063 7.441407-42.039063 4.949219l12.019531-41.859375c.296876.011719 5.1875 1.101563 12.894532-2.460937 0 0 81.785156-35.789063 83.347656-36.863282l27.605469 32.984375c-4.710938 3.632813-9.886719 6.738281-15.488281 9.175781l-18.476563 8.035157c-3.800781 1.652343-5.539063 6.074219-3.890625 9.871093 1.230469 2.824219 5.132812 6.019532 9.871094 3.886719l18.480468-8.039062c24.417969-10.621094 42.464844-31.4375 49.511719-57.117188l27.640625-100.703125c7.046875-25.683594 2.15625-52.796875-13.417968-74.394531zm-84.476563-80.828125c8.761719 5.160156 16.417969 12.097656 22.339844 20.3125l49.96875 69.289062c3.367187 4.667969 6.125 9.648438 8.265625 14.835938l-40.523438 14.546875c-.726562-1.476563-52.535156-73.5625-52.535156-73.5625-2.316406-3.210937-5.191406-5.855469-8.417969-7.878906l3.832031-13.964844c8.859376-4.585937 15.191407-21.34375 17.070313-23.578125zm-50.121094 7.238281 4.75 8.683594c2.632813 4.816406 7.046875 8.277344 12.167969 9.761719l-1.984375 7.230468c-4.714844-.316406-9.539063.449219-14.066406 2.417969 0 0-81.257813 35.492188-82.601563 36.359375l-27.421875-33.203125c4.460938-3.328125 9.332031-6.179687 14.566407-8.457031 0 0 81.703124-35.453125 83.429687-36.050781 4.535156 3.625 8.339844 8.105469 11.160156 13.257812zm-122.917969 189.695313-41.503906 14.875c-2.15625-10.542969-1.941406-21.554688.777344-32.296875 6.128906-.359375 11.675781-3.835938 14.644531-9.265625l3.847657-7.039063c3.15625-5.773437 7.878906-10.492187 13.652343-13.648437l7.035157-3.851563c5.738281-3.136719 9.304687-9.148437 9.304687-15.691406 0-6.539063-3.5625-12.554687-9.304687-15.691406l-7.035157-3.847657c-4.191406-2.292968-7.816406-5.417968-10.703125-9.160156l6.574219-23.945312c2.960937-10.796875 8.28125-20.546875 15.433594-28.691406l28.261719 34.214843c-.957032 1.839844-30.953126 111.535157-30.984376 114.039063zm-156.695312-6.941406c-2.890625-1.757813-4.507812-4.824219-4.324219-8.199219l6.214844-115.511719c.246094-4.5625 2.644531-8.507812 6.582031-10.824219 3.9375-2.316406 8.550782-2.496093 12.65625-.496093l76.703125 37.375s-5.054687 12.996093-16.101562 18.136718l-7.039063 3.851563c-5.738281 3.136719-9.304687 9.152343-9.304687 15.691406s3.566406 12.550781 9.304687 15.691406l5.160156 2.820313-70.585937 41.53125c-2.914063 1.714844-6.378906 1.691406-9.265625-.066406zm88.925781-53.597657-7.039062-3.847656c-1.304688-.714844-1.5-1.894531-1.5-2.53125 0-.640625.195312-1.816406 1.5-2.53125l7.039062-3.851563c8.292969-4.535156 15.078125-11.320312 19.613281-19.613281l3.847657-7.035156c.714843-1.308594 1.894531-1.503906 2.53125-1.503906.640625 0 1.816406.195312 2.53125 1.503906l3.851562 7.035156c4.535157 8.296875 11.316407 15.078125 19.613281 19.613281l7.035157 3.851563c1.308593.710937 1.503906 1.890625 1.503906 2.53125 0 .636719-.195313 1.816406-1.503906 2.53125l-7.035157 3.847656c-8.296874 4.539063-15.078124 11.320313-19.613281 19.617188l-3.851562 7.035156c-.710938 1.304687-1.890625 1.5-2.53125 1.5-.636719 0-1.816407-.195313-2.53125-1.5l-3.847657-7.035156c-4.535156-8.296875-11.320312-15.078125-19.613281-19.617188zm165.046875-187.425781s-11.160156 5.054688-11.160156 18.148438c0 7.050781 3.652344 13.554687 9.59375 17.246093l-22.605469 9.835938c-.753906-2.613281-1.832031-5.136719-3.238281-7.484375l-25.902344-43.132813c-2.152344-3.582031-4.929687-6.605469-8.121094-8.996093l20.953126-49.335938c2.703124 2.125 5.066406 4.742188 6.914062 7.824219zm-178.320312-42.929688 113.601562-26.199218c3.503906-.804688 7.027344-.921875 10.429688-.453125l-20.953125 49.335937c-3.941407-.636718-8.046875-.535156-12.117188.402344l-49.023437 11.308594c-3.613282.832031-6.953125 2.28125-9.941406 4.199218l-42.140626-34.054687c2.988282-2.109375 6.410157-3.675781 10.144532-4.539063zm-22.210938 25.539063c.292969-3.34375 1.167969-6.519531 2.5-9.449219l41.363282 33.429688c-2.175782 3.839844-3.585938 8.167968-3.988282 12.78125l-1.476562 16.824218c-.363282 4.125 2.6875 7.765626 6.816406 8.128907 4.117188.359375 7.761719-2.691407 8.125-6.816407l1.476562-16.824218c.625-7.128906 5.730469-12.996094 12.703126-14.605469l49.023437-11.304687c6.96875-1.609376 14.128906 1.429687 17.8125 7.566406l25.902344 43.128906c1.078125 1.796875 1.785156 3.789062 2.117187 5.84375l-36.777344 15.996094c-11.132812 4.839844-20.933593 11.804687-28.976562 20.378906l-101.5-49.457031zm-69.015625 41.054687 156.160157 76.089844c-4.875 7.496094-8.632813 15.796875-11.066407 24.675782l-3.097656 11.285156c-3.171875-2.667969-9.175781-6.671875-16.925781-3.351563l-81.796875-39.855469c-6.269531-3.054687-13.3125-3.65625-19.859375-1.875l-40.527344-68.882812c5.664062-1.382812 11.625-.761719 17.113281 1.914062zm-50.601562 280.34375 13.925781-258.765624c.328125-6.09375 2.679688-11.605469 6.636719-15.882813l40.527343 68.882813c-4.734374 4.859374-7.625 11.304687-8 18.265624l-6.21875 115.511719c-.363281 6.746094 2.117188 13.199219 6.667969 17.929688l-45.167969 75.128906c-5.742187-5.375-8.808593-12.917969-8.371093-21.070313zm40.691406 24.746094c-5.921875 3.480469-12.601563 4.558594-18.984375 3.253906l45.101562-75.023437c1.34375.230469 8.082032 2.027344 16.238282-2.964844l75.457031-44.398437c1.128906 1.453125 7.144531 8.550781 9.59375 15.351562l-.042969.160156c-2.757812 10.042969-3.679687 20.300782-2.859375 30.367188zm235.175781 56.46875c-12.855468-5.152344-24.117187-13.886718-32.257812-25.175781l-49.972656-69.296875c-3.097657-4.296875-5.679688-8.855469-7.742188-13.597656l40.640625-14.566406c.578125 1.046874 51.894531 72.34375 51.894531 72.34375 2.558594 3.546874 5.796875 6.40625 9.4375 8.496093zm111.691406-88.03125-78.339843 34.074219c-6.589844 2.867187-14.421875.714844-18.621094-5.109375l-49.96875-69.292969c-2.601563-3.605469-3.417969-8.136719-2.242187-12.425781l27.640624-100.703125c1.175782-4.289063 4.191407-7.765625 8.269532-9.542969l78.339844-34.074218c6.59375-2.863282 14.421874-.714844 18.625 5.113281l49.96875 69.289062c2.601562 3.609375 3.417968 8.140625 2.238281 12.429688l-27.636719 100.703125c-1.179688 4.289062-4.195312 7.765625-8.273438 9.539062zm91.78125-94.910156-27.640624 100.703125c-2.855469 10.402344-7.898438 19.832031-14.660157 27.789063l-28.605469-34.171876c.757813-1.585937 30.371094-109.699218 30.5-111.714843l41.8125-15.011719c1.964844 10.609375 1.542969 21.660156-1.40625 32.40625zm0 0"/></svg>