<svg height="511pt" viewBox="0 0 511 511.99928" width="511pt" xmlns="http://www.w3.org/2000/svg"><path d="m374.617188 137.878906c-12.671876-12.671875-33.292969-12.671875-45.964844 0-12.671875 12.675782-12.671875 33.292969 0 45.96875 12.671875 12.671875 33.292968 12.671875 45.964844 0 12.675781-12.675781 12.675781-33.292968 0-45.96875zm-35.355469 35.359375c-6.824219-6.824219-6.824219-17.929687 0-24.75 6.820312-6.824219 17.925781-6.824219 24.75 0 6.824219 6.820313 6.824219 17.925781 0 24.75s-17.929688 6.824219-24.75 0zm0 0"/><path d="m503.367188 272.929688c5.1875-8.472657 6.761718-18.457032 4.4375-28.113282-2.394532-9.953125-8.863282-18.484375-17.652344-23.546875-1.011719-6.34375-3.210938-12.472656-6.496094-18.042969 24.296875-47.160156 13.554688-94.425781 11.898438-100.859374 22.824218-23.617188 22.59375-61.390626-.71875-84.703126-23.335938-23.335937-61.160157-23.546874-84.773438-.65625-31.632812-8.152343-67.464844-4.445312-100.808594 11.824219-5.195312-3.066406-10.878906-5.167969-16.765625-6.257812-5.261719-9.820313-14.511719-16.707031-25.433593-18.90625-20.097657-4.046875-39.742188 9.007812-43.792969 29.105469-2.398438 11.890624 1.140625 24.097656 9.449219 32.886718-1.363282 9.636719 0 19.714844 4.414062 28.992188-14.484375 23.726562-22.546875 50.121094-23.558594 76.027344-7.574218 4.226562-14.535156 9.480468-20.734375 15.679687-21.507812 21.507813-30.421875 50.90625-26.757812 78.960937l-154.46875 173.535157c-15.457031 17.367187-14.691407 43.847656 1.75 60.289062 16.441406 16.4375 42.921875 17.207031 60.289062 1.75l173.535157-154.46875c28.054687 3.664063 57.453124-5.25 78.960937-26.757812 6.195313-6.195313 11.445313-13.152344 15.671875-20.722657 25.992188-1.023437 52.472656-9.222656 76.015625-23.582031 8.863281 4.222657 18.457031 5.664063 27.703125 4.601563 9.0625 8.925781 22.273438 12.71875 34.820312 9.699218 9.65625-2.320312 17.832032-8.265624 23.015626-16.734374zm-19.140626-244.660157c15.546876 15.550781 17.445313 39.652344 5.699219 57.292969-5.90625-14.121094-14.394531-26.851562-25.265625-37.722656-10.945312-10.945313-23.777344-19.371094-37.800781-25.210938 17.644531-11.804687 41.796875-9.929687 57.367187 5.640625zm-236.789062-6.617187c12.179688-9.085938 23.265625-1.101563 25.949219 1.003906-18.183594 1.519531-30.308594 17.410156-34.554688 24.945312-1.34375-3.746093-3.574219-16.863281 8.605469-25.949218zm-183.765625 468.035156c-11.441406 10.183594-28.878906 9.675781-39.707031-1.152344s-11.335938-28.269531-1.15625-39.707031l47.816406-53.714844c3.375 7.738281 15.347656 25.203125 25.457031 33.550781 3.191407 2.636719 7.910157 2.214844 10.5625-.96875 2.648438-3.183593 2.015625-7.71875-.96875-10.5625-15.914062-15.160156-22.046875-29.019531-23.769531-34.695312l88.304688-99.207031c4.488281 13.324219 12.023437 25.839843 22.621093 36.4375 10.59375 10.597656 23.109375 18.132812 36.433594 22.617187zm139.765625-180.628906c-30.902344-30.902344-30.902344-81.1875 0-112.09375 3.269531-3.269532 6.792969-6.214844 10.527344-8.84375.484375 5.589844 1.304687 11.121094 2.484375 16.558594.316406 1.460937 2.96875 7.082031 8.917969 5.738281 4.042968-.910157 6.621093-4.871094 5.742187-8.917969-6.457031-29.734375-1.0625-62.652344 14.765625-91.972656 19.789062 31.582031 43.171875 60.953125 69.65625 87.4375 26.492188 26.492187 55.871094 49.878906 87.453125 69.667968-50.40625 27.339844-108.183594 22.488282-143.898437-13.222656-7.089844-7.09375-13.085938-15.183594-17.816407-24.050781-1.949219-3.648437-6.496093-5.035156-10.148437-3.085937-3.65625 1.949218-5.039063 6.496093-3.089844 10.148437 5.429688 10.171875 12.308594 19.457031 20.445312 27.59375 19.820313 19.816406 46.578126 31.945313 75.890626 34.523437-2.625 3.734376-5.570313 7.253907-8.835938 10.519532-30.902344 30.90625-81.1875 30.90625-112.09375 0zm217.953125-48.761719c-34.609375-20.46875-66.65625-45.347656-95.25-73.9375-28.589844-28.589844-53.46875-60.640625-73.9375-95.253906-10.121094-17.113281-4.433594-39.273438 12.683594-49.394531 17.113281-10.117188 39.269531-4.425782 49.390625 12.683593 26.605468 44.988281 61.179687 84.027344 102.765625 116.027344 3.28125 2.527344 7.992187 1.914063 10.519531-1.367187 2.523438-3.285157 1.910156-7.996094-1.371094-10.519532-40.0625-30.832031-74.378906-72.703125-104.214844-119.035156 47.660157-20.648438 99.542969-13.585938 132.074219 18.945312 42.714844 42.714844 28.40625 110.339844 18.960938 132.089844-2.234375-1.917968-17.957031-11.722656-23.144531-15.136718-3.460938-2.277344-8.113282-1.316407-10.390626 2.144531-2.277343 3.460937-1.320312 8.105469 2.144532 10.386719 5.386718 3.546874 10.929687 7.007812 16.480468 10.289062 17.113282 10.125 22.804688 32.285156 12.683594 49.394531-10.121094 17.113281-32.277344 22.804688-49.394531 12.683594zm42.46875 13.957031c7.972656-4.257812 21.992187-14.289062 25.707031-33.847656 1.699219 2.328125 8.691406 12.160156 1.007813 24.691406-7.6875 12.527344-22.632813 10.6875-26.714844 9.15625zm0 0"/></svg>