<svg height="512pt" viewBox="-67 0 512 512.0021" width="512pt" xmlns="http://www.w3.org/2000/svg"><path d="m365.453125 301.433594-22.1875-45.421875s19.109375-18.394531 13.484375-37.578125l9.371094-10.183594c16.085937-17.472656 15.53125-44.316406-1.261719-61.109375s-43.636719-17.347656-61.109375-1.261719l-10.179688 9.371094c-4.800781-.601562-9.679687-.417969-14.429687.558594-8.714844-41.679688 11.363281-74.839844 30.421875-95.738282 7.757812-8.507812 10.40625-20.1875 7.082031-31.246093-3.367187-11.203125-12.152343-19.605469-23.5-22.476563-71.695312-18.125-146.539062 3.097656-200.214843 56.769532-53.671876 53.675781-74.894532 128.519531-56.769532 200.210937 1.496094 5.921875 8.167969 19.066406 22.480469 23.503906 11.027344 3.417969 22.734375.671875 31.242187-7.082031 21.695313-19.785156 56.363282-40.472656 99.988282-29.4375-.007813.140625-84.363282 78.0625-84.363282 78.0625-11.335937-7.179688-26.554687-5.839844-36.433593 4.035156-9.277344 9.277344-11.027344 23.277344-5.25 34.339844l-44.417969 40.890625c-12.164062 11.195313-19.050781 26.464844-19.390625 42.992187-.34375 16.527344 5.90625 32.070313 17.597656 43.757813 11.6875 11.691406 27.230469 17.9375 43.757813 17.597656 16.527344-.339843 31.796875-7.226562 42.992187-19.390625 2.804688-3.046875 2.609375-7.800781-.4375-10.597656-3.046875-2.804688-7.792969-2.609375-10.597656.4375-8.402344 9.128906-19.863281 14.296875-32.265625 14.554688-12.40625.257812-24.070312-4.433594-32.84375-13.207032-8.773438-8.773437-13.460938-20.4375-13.207031-32.84375.257812-12.402344 5.425781-23.863281 14.554687-32.265625l43.886719-40.402343 60.277344 60.277343-19.703125 21.402344c-2.734375 2.96875-2.617188 7.550781.210937 10.378906.070313.074219.148438.148438.226563.21875 3.046875 2.804688 7.792968 2.609375 10.597656-.4375l20.191406-21.933593c11.058594 5.777343 25.058594 4.027343 34.339844-5.253907 9.875-9.875 11.214844-25.097656 4.035156-36.433593l77.632813-84.332032c8.570312-.472656 17.023437-3.441406 24.179687-8.898437l45.804688 22.378906c9.964844 4.871094 21.472656 2.949219 29.3125-4.894531 7.84375-7.839844 9.761718-19.347656 4.894531-29.3125zm-162.835937-17.183594 25.132812 25.132812c4.578125 4.578126 9.925781 7.921876 15.628906 10.054688l-69.882812 75.910156-56.84375-56.84375 75.914062-69.882812c2.128906 5.703125 5.472656 11.050781 10.050782 15.628906zm151.636718-126.503906c22.851563 22.851562-2.914062 44.414062-2.914062 44.414062-1.898438-3.320312-38.175782-39.601562-41.5-41.5 0 0 21.5625-25.761718 44.414062-2.914062zm-86.664062 20.605468c11.28125-11.285156 29.644531-11.285156 40.925781 0l25.132813 25.132813c11.285156 11.285156 11.285156 29.644531 0 40.925781l-54.363282 54.367188c-11.285156 11.285156-29.644531 11.285156-40.929687 0l-25.132813-25.132813c-11.28125-11.285156-11.285156-29.644531 0-40.929687zm-176.863282 81.132813c-.585937-9.425781-.648437-23.25 1.757813-39.417969 6.007813-40.445312 23.757813-75.652344 52.75-104.644531 21.007813-21.007813 45.636719-36.257813 73.203125-45.324219 3.933594-1.292968 6.074219-5.53125 4.78125-9.46875-1.292969-3.933594-5.535156-6.074218-9.46875-4.78125-29.816406 9.808594-56.4375 26.28125-79.125 48.96875-39.207031 39.207032-52.675781 83.453125-57.074219 113.671875-3.574219 24.570313-1.945312 43.875-.820312 52.417969-4.121094 2.417969-8.972657 3.003906-13.777344 1.558594-6.105469-1.832032-10.683594-6.625-12.25-12.808594-16.816406-66.523438 2.933594-136.027344 52.832031-185.929688 49.902344-49.898437 119.410156-69.652343 185.929688-52.832031 6.1875 1.5625 10.976562 6.140625 12.8125 12.25 1.441406 4.800781.859375 9.652344-1.558594 13.773438-8.636719-1.132813-28.269531-2.789063-53.230469.941406-4.097656.613281-7.164062 4.476563-6.308593 8.527344 1.097656 5.199219 6.082031 6.675781 8.527343 6.3125 16.246094-2.429688 30.132813-2.371094 39.59375-1.78125-18.476562 24.046875-34.105469 58.378906-24.285156 100.492187-2.859375 1.757813-5.5625 3.863282-8.035156 6.335938l-54.363281 54.363281c-4.035157 4.035156-7.109376 8.671875-9.242188 13.617187-43.046875-10.875-78.125 4.910157-102.648438 23.757813zm78.257813 172.835937c-5.589844 5.585938-14.683594 5.585938-20.269531 0l-69.03125-69.03125c-.167969-.167968-.3125-.34375-.464844-.515624-5.101562-5.621094-4.960938-14.332032.464844-19.757813 5.585937-5.585937 14.679687-5.585937 20.269531 0l69.03125 69.035156c5.585937 5.585938 5.585937 14.679688 0 20.269531zm168.84375-110.15625-40.789063-19.925781 35.007813-35.007812 19.929687 40.789062c2.441407 5 .554688 9.539063-2.027343 12.121094-2.578125 2.578125-7.117188 4.464844-12.121094 2.023437zm0 0"/></svg>