<svg height="512pt" viewBox="0 -17 512.00022 512" width="512pt" xmlns="http://www.w3.org/2000/svg"><path d="m360.046875 187.226562c4.0625-.796874 6.714844-4.738281 5.917969-8.804687l-2.394532-12.214844c-.792968-4.066406-4.734374-6.714843-8.800781-5.921875-4.0625.796875-6.714843 4.738282-5.917969 8.804688l2.394532 12.214844c.792968 4.066406 4.734375 6.714843 8.800781 5.921874zm0 0"/><path d="m196.476562 191.285156c-4.066406.796875-6.714843 4.738282-5.921874 8.804688l2.394531 12.214844c.796875 4.066406 4.734375 6.714843 8.800781 5.921874 4.0625-.796874 6.714844-4.738281 5.917969-8.800781l-2.394531-12.21875c-.792969-4.066406-4.734376-6.714843-8.796876-5.921875zm0 0"/><path d="m260.339844 193.074219c-3.699219-1.863281-8.207032-.375-10.070313 3.324219-1.863281 3.699218-.375 8.210937 3.328125 10.070312 9.15625 4.609375 19.285156 5.828125 28.808594 3.960938 9.527344-1.863282 18.449219-6.8125 25.191406-14.535157 2.722656-3.117187 2.402344-7.855469-.71875-10.582031-3.121094-2.722656-7.859375-2.402344-10.582031.71875-8.976563 10.285156-23.761719 13.179688-35.957031 7.042969zm0 0"/><path d="m510.25 374.003906s-9.371094-54.054687-68.273438-58.621094c-11.382812-78.980468-42.15625-215.515624-122.355468-279.332031-3.238282-2.578125-7.957032-2.039062-10.535156 1.199219-2.578126 3.242188-2.042969 7.960938 1.199218 10.539062 33.964844 27.027344 62.117188 71.183594 83.679688 131.238282 7.878906 21.949218 14.199218 44.21875 19.257812 65.363281-15.929687 3.550781-31.539062 7.09375-46.578125 10.574219-2.089843-3.691406-9.234375-16.238282-28.261719-12.398438l-89.269531 20.632813c-18.707031 3.636719-19.65625 19.164062-19.945312 23.324219-39.992188 5.335937-70.027344 1.5-89.960938-3.613282 4.761719-18.082031 6.3125-36.675781 4.558594-55.613281-3.566406-38.484375-10.328125-72.304687-19.554687-97.800781-10.882813-30.058594-24.734376-47.296875-41.179688-51.246094-7.964844-1.910156-16.046875-.664062-24.222656 3.71875 4.324218-6.054688 9.433594-12.296875 15.4375-18.410156 16.703125-17.007813 37.046875-29.742188 60.464844-37.859375 29.523437-10.230469 64.117187-13.144531 102.828124-8.660157 16.722657 1.9375 32.730469 6.785157 47.574219 14.410157 3.6875 1.894531 8.207031.441406 10.097657-3.242188 1.894531-3.6875.441406-8.207031-3.246094-10.097656-16.449219-8.453125-34.183594-13.824219-52.699219-15.96875-41.1875-4.773437-78.1875-1.554687-109.976563 9.5625-25.671874 8.980469-47.96875 23.089844-66.300781 41.914063-46.34375 47.589843-51.113281 102.171874-49.601562 141.71875.460937 12.109374 7.804687 22.28125 19.160156 26.542968 3.511719 1.316406 20.253906 5.238282 32.078125-7.441406 18.042969-19.355469 36.855469-33.652344 55.71875-42.910156 3.652344 17.058594 6.554688 36.300781 8.484375 57.15625 5.832031 62.964844-28.976563 109.332031-60.023437 137.578125-6.277344-1.238281-11.792969-2.453125-16.421876-3.546875-15.132812-3.566406-31 1.402344-41.414062 12.972656-9.144531 10.15625-12.820312 23.667969-10.085938 37.066406 2.722657 13.34375 11.351563 24.277344 23.675782 30.011719 34.023437 15.824219 99.769531 34.6875 219.75 34.6875 83.121094 0 152.550781-4.863281 206.359375-14.460937 20.109375-3.585938 37.429687-14.898438 48.773437-31.863282 11.324219-16.933594 15.164063-37.21875 10.808594-57.125zm-456.539062-169.863281c-4.957032 5.257813-11.460938 5.351563-15.894532 3.6875-5.679687-2.128906-9.210937-7.015625-9.441406-13.070313-1.328125-34.722656 6.898438-63.070312 8.488281-68.175781 20.082031-31.492187 34.277344-35.761719 42.667969-33.75 14.414062 3.460938 27.734375 27.179688 37.285156 63.773438-21.546875 9.992187-42.75 25.945312-63.105468 47.535156zm373.203124 111.886719c-8.984374.433594-33.378906 11.402344-41.675781 14.660156l-14.179687-61.351562c14.707031-3.398438 29.957031-6.859376 45.507812-10.324219 4.605469 21.074219 7.949219 40.601562 10.347656 57.015625zm-174.425781-38.214844 89.273438-20.632812c9.710937-2.675782 12.316406 5.289062 12.964843 8.101562l16.367188 70.816406c-31.578125 11.757813-69.441406 23.707032-108.96875 31.421875-.003906-.011719-.007812-.03125-.011719-.042969l-17.726562-76.695312c-.648438-2.816406-.84375-10.191406 8.101562-12.96875zm-236.910156 131.945312c-1.769531-8.691406.613281-17.453124 6.542969-24.039062 6.746094-7.496094 17.019531-10.722656 26.820312-8.410156 26.253906 6.191406 79.75 16.191406 143.003906 13.59375 4.136719-.171875 7.355469-3.664063 7.183594-7.800782-.167968-4.140624-3.675781-7.359374-7.800781-7.1875-40.476563 1.664063-76.828125-1.980468-104.222656-6.382812 15.527343-15.464844 36.019531-38.792969 47.632812-72.292969 14.226563 3.710938 55.675781 9.417969 96.699219 4.113281l15.90625 68.832032c-1.394531.230468-18.457031 2.734375-25.660156 3.503906-4.121094.4375-7.101563 4.132812-6.664063 8.253906.441407 4.117188 4.136719 7.105469 8.253907 6.660156 7.445312-.792968 78.511718-2.757812 190.984374-53.582031 16.207032-7.324219 34.992188-6.679687 50.570313 1.835938 30.355469 16.59375 36.050781 45.066406 31.640625 60.976562-26.714844-18.933593-71.191406-22.613281-114.769531 6.023438-76.007813 49.945312-179.597657 57.609375-180.632813 57.679687l.003906.035156c-90.0625-3.796874-141.800781-19.203124-170.1875-32.40625-7.964843-3.703124-13.539062-10.777343-15.304687-19.40625zm432.457031 38.46875c-44.359375 7.910157-99.683594 12.550782-164.832031 13.847657 33.5-8.914063 72.425781-23.140625 106.734375-45.6875 19.574219-12.863281 40.679688-19.167969 61.039062-18.234375 16.332032.75 30.726563 6.148437 41.101563 15.292968-8.339844 21.238282-27.988281 31.917969-44.042969 34.78125zm0 0"/><path d="m279.058594 344.765625c.804687 3.46875 3.523437 6.570313 8.996094 5.621094l53.585937-12.386719c5.652344-1.3125 6.066406-7.058594 5.621094-8.996094l-9.480469-41.011718c-.929688-4.039063-4.964844-6.546876-8.996094-5.621094l-53.585937 12.386718c-5.652344 1.71875-6.066407 7.058594-5.617188 8.996094zm45.796875-46.089844 6.101562 26.398438-38.972656 9.007812-6.101563-26.398437zm0 0"/></svg>