<svg height="512pt" viewBox="0 -48 512 512" width="512pt" xmlns="http://www.w3.org/2000/svg"><path d="m29.917969 116.214844h70.152343c15.832032 0 28.714844-12.882813 28.714844-28.714844s-12.882812-28.714844-28.714844-28.714844h-70.152343c-15.832031 0-28.714844 12.882813-28.714844 28.714844s12.882813 28.714844 28.714844 28.714844zm0-42.394532h70.152343c7.542969 0 13.679688 6.136719 13.679688 13.679688s-6.136719 13.675781-13.679688 13.675781h-70.152343c-7.542969 0-13.679688-6.132812-13.679688-13.675781s6.136719-13.679688 13.679688-13.679688zm0 0"/><path d="m54.910156 299.847656h-26.195312c-15.832032 0-28.714844 12.882813-28.714844 28.714844 0 15.835938 12.882812 28.71875 28.714844 28.71875h26.195312c15.835938 0 28.71875-12.882812 28.71875-28.71875 0-15.832031-12.882812-28.714844-28.71875-28.714844zm0 42.394532h-26.195312c-7.542969 0-13.679688-6.136719-13.679688-13.679688s6.136719-13.675781 13.679688-13.675781h26.195312c7.542969 0 13.683594 6.132812 13.683594 13.675781 0 7.546875-6.140625 13.679688-13.683594 13.679688zm0 0"/><path d="m467.300781 61.789062c-29.335937-39.84375-68.554687-61.789062-110.4375-61.789062h-62.242187c-70.675782 0-131.761719 63.664062-149.789063 153.632812-8.203125-7.96875-19.347656-12.597656-30.886719-12.597656-4.152343 0-7.515624 3.363282-7.515624 7.515625 0 4.152344 3.363281 7.519531 7.515624 7.519531 9 0 17.652344 4.253907 23.144532 11.386719l11.917968 15.472657h-18.390624c-13.835938 0-25.097657 11.261718-25.097657 25.101562s11.261719 25.097656 25.097657 25.097656h18.390624l-11.917968 15.476563c-5.492188 7.128906-14.144532 11.386719-23.144532 11.386719h-59.273437c-2.816406 0-4.0625-1.96875-4.464844-2.816407-.40625-.847656-1.15625-3.050781.613281-5.246093l21.265626-26.332032c8.21875-10.179687 8.21875-24.957031 0-35.132812l-21.265626-26.335938c-1.769531-2.191406-1.019531-4.398437-.613281-5.242187.402344-.847657 1.648438-2.816407 4.464844-2.816407h26.867187c4.152344 0 7.519532-3.367187 7.519532-7.519531 0-4.152343-3.367188-7.515625-7.519532-7.515625h-26.867187c-7.769531 0-14.679687 4.355469-18.03125 11.367188-3.351563 7.011718-2.398437 15.125 2.480469 21.171875l21.265625 26.335937c3.800781 4.703125 3.800781 11.535156 0 16.242188l-21.265625 26.335937c-4.878906 6.046875-5.832032 14.15625-2.480469 21.171875 3.351563 7.011719 10.261719 11.367188 18.03125 11.367188h59.273437c11.535157 0 22.683594-4.628906 30.882813-12.59375 2.589844 12.894531 6.105469 25.410156 10.503906 37.414062h-14.074219c-15.832031 0-28.714843 12.882813-28.714843 28.714844 0 15.835938 12.882812 28.71875 28.714843 28.71875h45.199219c29.074219 37.925781 67.375 58.78125 108.164063 58.78125h62.242187c41.878907 0 81.101563-21.945312 110.4375-61.789062 28.824219-39.15625 44.699219-91.089844 44.699219-146.242188 0-55.148438-15.875-107.085938-44.699219-146.242188zm-346.746093 146.242188c0-5.546875 4.515624-10.0625 10.0625-10.0625h156.949218c5.546875 0 10.0625 4.515625 10.0625 10.0625 0 5.550781-4.515625 10.0625-10.0625 10.0625h-156.949218c-5.546876 0-10.0625-4.511719-10.0625-10.0625zm98.683593 91.816406c-9.726562-19.824218-16.167969-42.675781-18.839843-66.71875h20.507812c3.140625 25.90625 11.078125 49.882813 22.835938 69.085938-4.855469-2.714844-24.503907-2.367188-24.503907-2.367188zm16.832031-66.71875h32.015626c4.753906 19.253906 14.6875 31.003906 26.535156 31.003906 8.984375 0 16.925781-6.625 22.351562-18.65625 4.570313-10.125 7.085938-23.425781 7.085938-37.445312s-2.515625-27.320312-7.085938-37.445312c-5.425781-12.03125-13.367187-18.65625-22.351562-18.65625-11.921875 0-21.800782 11.714843-26.542969 31.003906h-32.007813c3.503907-26.792969 12.5-51.066406 25.71875-69.023438 4.050782-5.503906 18.46875-23.460937 33.851563-23.460937s29.800781 17.957031 33.851563 23.460937c17.390624 23.621094 27.367187 57.929688 27.367187 94.121094s-9.976563 70.5-27.367187 94.121094c-4.050782 5.503906-18.46875 23.460937-33.851563 23.460937s-29.800781-17.957031-33.851563-23.460937c-13.21875-17.957032-22.214843-42.230469-25.71875-69.023438zm71.84375-10.429687c-2.621093 16.65625-9.28125 26.398437-13.292968 26.398437-2.769532 0-7.609375-5.128906-10.941406-15.96875 0 0 17.652343.929688 24.234374-10.429687zm-24.246093-39.765625c3.3125-10.839844 8.125-15.96875 10.953125-15.96875 4.011718 0 10.671875 9.742187 13.292968 26.402344-7.820312-12.6875-24.246093-10.433594-24.246093-10.433594zm-126.269531 63.945312 10.585937-13.75h17.289063c2.46875 23.734375 8.398437 46.488282 17.371093 66.71875h-31.199219c-6.574218-16.652344-11.289062-34.441406-14.046874-52.96875zm-29.816407 81.683594c0-7.542969 6.136719-13.675781 13.679688-13.675781h91.085937c7.542969 0 13.679688 6.132812 13.679688 13.675781s-6.136719 13.679688-13.679688 13.679688h-91.085937c-7.542969 0-13.679688-6.132813-13.679688-13.679688zm229.28125 72.464844h-4.019531c19.367188-10.472656 37.105469-26.230469 52.214844-46.753906 28.824218-39.15625 44.699218-91.089844 44.699218-146.242188 0-44.941406-10.480468-87.710938-30.308593-123.683594-2.003907-3.636718-6.574219-4.960937-10.210938-2.957031s-4.960937 6.578125-2.957031 10.214844c18.605469 33.753906 28.441406 74.015625 28.441406 116.425781 0 106.417969-62.851562 192.996094-140.101562 192.996094-32.632813 0-63.691406-15.429688-88.707032-43.746094h26.433594c3.691406 0 7.21875-.710938 10.464844-1.984375 16.527344 13.789063 34.28125 20.785156 52.828125 20.785156 29.207031 0 51.46875-17.644531 65.003906-32.445312 2.800781-3.0625 2.589844-7.820313-.476562-10.621094-3.0625-2.800781-7.820313-2.589844-10.621094.476563-11.492187 12.570312-30.175781 27.554687-53.90625 27.554687-13.933594 0-27.519531-5.078125-40.460937-15.09375 7.820312-10.636719 5.734374-20.683594 5.460937-22.269531 1.746094 1.699218 15.84375 16.964844 35 16.964844 9.726563 0 19.613281-4.019532 29.386719-11.949219 7.375-5.984375 13.082031-12.890625 16.574218-17.632813 19.25-26.152344 30.292969-63.707031 30.292969-103.035156 0-39.332031-11.042969-76.886719-30.292969-103.035156-3.492187-4.742188-9.199218-11.648438-16.574218-17.632813-9.773438-7.933593-19.660156-11.953125-29.386719-11.953125s-19.609375 4.019532-29.382813 11.953125c-7.375 5.984375-13.085937 12.890625-16.574218 17.632813-15.027344 20.414062-25.132813 47.882812-28.777344 77.933594h-20.5c3.835938-34.515626 15.410156-66.335938 32.851562-90.027344 10.417969-14.148438 32.371094-37.886719 62.382813-37.886719s51.964844 23.738281 62.382813 37.886719c21.773437 29.578125 34.265624 71.542968 34.265624 115.128906 0 37.191406-9.070312 73.328125-25.53125 101.753906-2.082031 3.59375-.949218 8.355469 2.738282 10.273438 4.535156 2.359375 8.875-.332032 10.269531-2.738282 17.769531-30.679687 27.558594-69.492187 27.558594-109.289062 0-46.726562-13.558594-91.9375-37.191407-124.042969-12.101562-16.4375-37.867187-44.007812-74.492187-44.007812s-62.394531 27.570312-74.492187 44.007812c-19.265626 26.171875-31.925782 61.199219-35.859376 98.941407h-17.300781l-10.609375-13.773438c13.316406-89.492188 70.664063-154.121094 137.242188-154.121094 35.347656 0 69.136718 18.28125 95.148437 51.476563 2.558594 3.269531 7.285157 3.84375 10.554688 1.28125 3.265625-2.558594 3.839843-7.285157 1.28125-10.550781-14.339844-18.300782-30.90625-32.515626-48.847657-42.207032h4.105469c77.253907 0 140.101563 86.578125 140.101563 192.996094s-62.847656 192.996094-140.101563 192.996094zm0 0"/></svg>