<svg height="512pt" viewBox="-68 0 512 512" width="512pt" xmlns="http://www.w3.org/2000/svg"><path d="m373.605469 288.664062-22.523438-119.449218c-2.773437-14.71875-12.03125-27.027344-25.398437-33.78125-4.335938-2.191406-8.890625-3.675782-13.519532-4.46875l-7.957031-37.300782c-4.527343-21.21875-14.824219-40.804687-29.78125-56.636718-2.84375-3.011719-7.589843-3.144532-10.597656-.304688-3.011719 2.84375-3.148437 7.59375-.304687 10.605469 13.066406 13.832031 22.0625 30.9375 26.015624 49.46875l7.265626 34.070313c-4.515626.722656-25.585938 9.832031-31.730469 12.253906l-8.386719-39.316406c-6.828125-31.992188-35.527344-55.210938-68.238281-55.210938-32.710938 0-61.410157 23.21875-68.234375 55.210938l-8.386719 39.3125c-6.148437-2.421876-27.21875-11.53125-31.734375-12.25l7.269531-34.070313c4.921875-23.070313 17.730469-43.949219 36.066407-58.789063 18.335937-14.835937 41.429687-23.007812 65.019531-23.007812 18.5625 0 36.847656 5.035156 52.878906 14.5625 3.558594 2.113281 8.164063.945312 10.277344-2.617188 2.117187-3.5625.945312-8.164062-2.613281-10.28125-18.351563-10.902343-39.285157-16.664062-60.542969-16.664062-27.015625 0-53.457031 9.359375-74.453125 26.351562-21 16.992188-35.667969 40.898438-41.304688 67.316407l-7.957031 37.296875c-4.628906.796875-9.183594 2.277344-13.519531 4.46875-13.367188 6.75-22.625 19.0625-25.398438 33.78125l-16.515625 87.566406c-.765625 4.070312 1.910157 7.992188 5.980469 8.757812 4.066406.765626 7.992188-1.90625 8.761719-5.980468l10.945312-58.042969c28.820313 18.808594 86.445313 49.753906 153.460938 49.753906 67.011719 0 124.640625-30.949219 153.460937-49.753906l16.957032 89.929687c3.546874 18.804688 3.933593 37.769532 1.359374 56.21875-19.070312 2.363282-44.449218 8.542969-66.859374 24.078126-28.699219 19.898437-46.09375 50.210937-51.699219 90.097656-.574219 4.101562 2.261719 8.050781 6.382812 8.46875 5.109375.519531 7.945313-2.632813 8.472657-6.382813 5-35.570312 20.269531-62.4375 45.390624-79.855469 18.183594-12.605468 38.8125-18.324218 55.414063-20.863281-6.042969 25.761719-17.992187 50.09375-35.371094 71.058594-33.058593 39.867187-81.71875 62.734375-133.507812 62.734375-17.617188 0-34.875-2.652344-51.277344-7.714844-.46875-49.175781-15.734375-86.605468-45.433594-111.304687-24.078125-20.019531-53.128906-27.605469-75.070312-30.316407-2.574219-18.449218-2.183594-37.414062 1.363281-56.21875.765625-4.070312-1.910156-7.992187-5.980469-8.761718-4.0625-.761719-7.992187 1.910156-8.761719 5.980468-10.425781 55.296876 4.191407 111.851563 40.105469 155.171876 35.914063 43.320312 88.785157 68.164062 145.054688 68.164062s109.140625-24.84375 145.054687-68.164062c35.914063-43.316407 50.53125-99.875 40.101563-155.171876zm-238.722657-181.730468c5.359376-25.113282 27.886719-43.339844 53.566407-43.339844 25.679687 0 48.207031 18.226562 53.5625 43.339844l8.8125 41.292968c-21.253907 6.914063-42.132813 10.421876-62.375 10.421876-20.242188 0-41.121094-3.507813-62.375-10.421876zm53.566407 129.335937c-68.585938 0-128.554688-35.902343-150.441407-50.777343l2.546876-13.5c1.902343-10.09375 8.253906-18.539063 17.425781-23.171876 9.125-4.609374 19.628906-4.714843 28.824219-.289062 34.613281 16.667969 68.8125 25.117188 101.644531 25.117188s67.03125-8.449219 101.644531-25.117188c9.195312-4.425781 19.699219-4.320312 28.824219.289062 9.171875 4.632813 15.523437 13.078126 17.425781 23.171876l2.542969 13.5c-21.886719 14.875-81.855469 50.777343-150.4375 50.777343zm-133.507813 197.992188c-17.378906-20.960938-29.332031-45.296875-35.371094-71.0625 19.136719 2.917969 42.902344 9.953125 62.574219 26.316406 25.039063 20.824219 38.429688 52.519531 39.898438 94.308594-25.734375-10.652344-48.808594-27.5-67.101563-49.5625zm0 0"/><path d="m144.921875 376.667969c-2.664063 10.148437-.511719 20.734375 5.898437 29.042969 6.410157 8.308593 16.105469 13.074218 26.597657 13.074218h22.0625c10.492187 0 20.1875-4.765625 26.597656-13.074218 6.410156-8.308594 8.5625-18.894532 5.898437-29.042969l-9.277343-35.40625c-.386719-1.476563-.085938-3.042969.832031-4.300781 5.714844-7.855469 8.570312-17.160157 8.257812-26.910157-.707031-22.105469-16.800781-41.863281-43.339843-41.863281-20.65625 0-43.363281 13.757812-43.363281 43.28125 0 9.300781 2.902343 18.167969 8.398437 25.648438.832031 1.136718 1.101563 2.683593.71875 4.148437zm14.507813 3.800781 9.28125-35.402344c1.539062-5.882812.394531-12.015625-3.140626-16.832031-3.589843-4.882813-5.484374-10.683594-5.484374-16.769531 0-13.960938 8.554687-28.363282 28.351562-28.363282s27.894531 12.972657 28.359375 27.425782c.203125 6.382812-1.660156 12.472656-5.394531 17.601562-3.578125 4.914063-4.75 11.089844-3.214844 16.9375l9.277344 35.402344c1.472656 5.621094.285156 11.476562-3.265625 16.078125-3.546875 4.597656-8.914063 7.234375-14.722657 7.234375h-22.058593c-5.808594 0-11.175781-2.636719-14.726563-7.234375-3.542968-4.597656-4.734375-10.457031-3.261718-16.078125zm0 0"/></svg>