<svg height="512pt" viewBox="-12 0 512 512.00125" width="512pt" xmlns="http://www.w3.org/2000/svg"><path d="m451.246094 208.21875 21.292968-21.296875c19.550782-19.546875 19.550782-51.351563 0-70.898437l-49.636718-49.640626c-19.550782-19.546874-51.355469-19.546874-70.902344 0l-21.296875 21.292969c-22.527344-15.847656-53.929687-13.722656-74.058594 6.40625-20.128906 20.128907-22.253906 51.53125-6.40625 74.058594l-198.390625 198.394531c-15.203125 15.203125-24.046875 35.402344-24.898437 56.875-.085938 2.179688 1.878906 7.328125 7.199219 7.792969 4.128906.359375 7.628906-3.058594 7.792968-7.199219.699219-17.691406 7.984375-34.332031 20.511719-46.863281l113.277344-113.273437c-.144531 6.285156.664062 12.851562 2.46875 19.550781 4.523437 16.78125 14.367187 32.65625 28.164062 46.449219 16.394531 16.398437 38.375 29.84375 63.621094 38.398437l-108.203125 108.203125c-27.382812 27.382812-71.941406 27.382812-99.324219 0-6.980469-6.976562-12.304687-15.140625-15.835937-24.253906-1.496094-3.859375-5.839844-5.78125-9.703125-4.285156-3.863281 1.492187-5.78125 5.835937-4.285157 9.699218 4.289063 11.078125 10.753907 20.984375 19.214844 29.445313 33.234375 33.234375 87.308594 33.234375 120.542969 0l198.390625-198.390625c22.527344 15.847656 53.929688 13.722656 74.058594-6.40625 20.132812-20.128906 22.253906-51.53125 6.40625-74.058594zm-258.5625 71.296875c-4.460938-16.5625-1.429688-31.171875 8.53125-41.132813 7.027344-7.027343 21.011718-17.8125 33.523437-5.300781 9.578125 9.578125 14.894531 29.382813 12.75 50.121094-2.84375 27.503906 7.152344 51.253906 16.589844 66.917969-42.992187-17.628906-65.246094-47.785156-71.394531-70.605469zm69.726562 5.230469c3.230469-31.25-5.019531-68.265625-35.445312-72.113282l33.265625-33.265624 99.328125 99.324218-74.933594 74.929688c-8.664062-11.292969-25.445312-37.636719-22.214844-68.875zm111.34375-13.074219-106.503906-106.5c-16.671875-16.675781-16.671875-43.808594 0-60.484375 16.675781-16.671875 43.808594-16.671875 60.484375 0l59.78125 59.785156c2.929687 2.929688 7.679687 2.929688 10.609375 0 2.929688-2.929687 2.929688-7.679687 0-10.609375l-56.195312-56.195312 20.675781-20.679688c13.699219-13.699219 35.988281-13.699219 49.6875 0l49.640625 49.640625c13.699218 13.699219 13.699218 35.988282 0 49.6875l-20.679688 20.679688-20.539062-20.542969c-2.929688-2.925781-7.679688-2.925781-10.609375 0-2.929688 2.929687-2.929688 7.679687 0 10.609375l24.128906 24.128906c16.675781 16.675782 16.675781 43.808594 0 60.480469-16.675781 16.675781-43.808594 16.675781-60.480469 0zm0 0"/><path d="m145.730469 375.378906c8.773437-8.773437 8.773437-23.050781 0-31.824218-8.773438-8.773438-23.046875-8.773438-31.820313 0-8.773437 8.773437-8.773437 23.050781 0 31.824218 8.773438 8.773438 23.046875 8.773438 31.820313 0zm-21.214844-21.214844c2.925781-2.925781 7.683594-2.925781 10.609375 0 2.921875 2.925782 2.921875 7.683594 0 10.609376-2.925781 2.921874-7.683594 2.921874-10.609375 0-2.921875-2.925782-2.921875-7.683594 0-10.609376zm0 0"/><path d="m219.148438 393.488281c8.773437-8.773437 8.773437-23.046875 0-31.820312-8.773438-8.773438-23.046876-8.773438-31.820313 0-8.777344 8.773437-8.773437 23.046875 0 31.820312 8.773437 8.773438 23.046875 8.773438 31.820313 0zm-21.214844-21.214843c2.925781-2.921876 7.683594-2.921876 10.609375 0 2.921875 2.925781 2.921875 7.683593 0 10.609374-2.925781 2.925782-7.683594 2.925782-10.609375 0-2.925782-2.925781-2.925782-7.683593 0-10.609374zm0 0"/><path d="m112.425781 415.351562c-8.773437 8.773438-8.773437 23.050782 0 31.824219 8.773438 8.773438 23.050781 8.773438 31.824219 0 8.773438-8.773437 8.773438-23.050781 0-31.824219-8.773438-8.773437-23.050781-8.773437-31.824219 0zm21.214844 10.609376c2.925781 2.921874 2.925781 7.683593 0 10.605468-2.921875 2.925782-7.683594 2.925782-10.605469 0-2.925781-2.921875-2.925781-7.679687 0-10.605468 2.921875-2.925782 7.683594-2.925782 10.605469 0zm0 0"/><path d="m145.574219 128.308594c-7.863281 0-15.089844-4.285156-18.863281-11.183594l-5.1875-9.484375c-4.496094-8.222656-11.21875-14.941406-19.4375-19.4375l-9.484376-5.1875c-6.898437-3.773437-11.183593-11-11.183593-18.863281 0-7.859375 4.285156-15.085938 11.183593-18.859375l9.484376-5.1875c8.21875-4.496094 14.941406-11.21875 19.4375-19.4375l5.1875-9.484375c3.773437-6.898438 11-11.183594 18.863281-11.183594 7.859375 0 15.089843 4.285156 18.859375 11.183594l5.1875 9.484375c4.496094 8.21875 11.21875 14.941406 19.4375 19.4375l9.484375 5.1875c6.898437 3.773437 11.183593 11 11.183593 18.859375 0 7.863281-4.285156 15.089844-11.183593 18.863281l-9.484375 5.1875c-8.21875 4.496094-14.9375 11.21875-19.4375 19.4375l-5.1875 9.484375c-3.769532 6.898438-11 11.183594-18.859375 11.183594zm0-113.308594c-1.160157 0-4.035157.332031-5.703125 3.382812l-5.1875 9.484376c-5.875 10.742187-14.65625 19.523437-25.398438 25.398437l-9.484375 5.1875c-3.050781 1.667969-3.378906 4.542969-3.378906 5.703125 0 1.15625.328125 4.03125 3.378906 5.699219l9.484375 5.1875c10.742188 5.875 19.527344 14.65625 25.398438 25.398437l5.1875 9.488282c1.667968 3.050781 4.542968 3.378906 5.703125 3.378906 1.15625 0 4.03125-.328125 5.699219-3.378906l5.1875-9.488282c5.875-10.738281 14.65625-19.523437 25.398437-25.398437l9.484375-5.1875c3.054688-1.667969 3.382812-4.542969 3.382812-5.699219 0-1.160156-.328124-4.03125-3.382812-5.703125l-9.484375-5.1875c-10.742187-5.875-19.523437-14.65625-25.398437-25.398437l-5.1875-9.484376c-1.667969-3.050781-4.542969-3.382812-5.699219-3.382812zm0 0"/><path d="m44.5625 277.898438c-6.09375 0-11.691406-3.320313-14.613281-8.664063l-3.394531-6.207031c-2.703126-4.9375-6.742188-8.980469-11.683594-11.683594l-6.207032-3.390625c-5.34375-2.925781-8.664062-8.523437-8.664062-14.617187 0-6.089844 3.320312-11.691407 8.664062-14.613282l6.207032-3.394531c4.941406-2.703125 8.980468-6.742187 11.683594-11.683594l3.394531-6.207031c2.921875-5.34375 8.519531-8.664062 14.613281-8.664062s11.691406 3.320312 14.613281 8.664062l3.394531 6.207031c2.703126 4.941407 6.742188 8.980469 11.683594 11.683594l6.207032 3.394531c5.34375 2.921875 8.664062 8.523438 8.664062 14.613282 0 6.089843-3.320312 11.691406-8.664062 14.617187l-6.207032 3.390625c-4.9375 2.703125-8.980468 6.746094-11.683594 11.6875l-3.394531 6.203125c-2.921875 5.347656-8.519531 8.664063-14.613281 8.664063zm0-74.121094c-.449219 0-4.847656 7.066406-4.847656 7.066406-4.082032 7.464844-10.183594 13.566406-17.648438 17.648438 0 0-7.066406 4.398437-7.066406 4.847656 0 .445312 7.066406 4.847656 7.066406 4.847656 7.464844 4.078125 13.566406 10.179688 17.648438 17.644531 0 0 4.398437 7.066407 4.847656 7.066407s4.847656-7.066407 4.847656-7.066407c4.082032-7.464843 10.183594-13.566406 17.648438-17.644531 0 0 7.066406-4.402344 7.066406-4.847656 0-.449219-7.066406-4.847656-7.066406-4.847656-7.464844-4.082032-13.566406-10.183594-17.648438-17.648438 0 0-4.398437-7.066406-4.847656-7.066406zm0 0"/><path d="m423.121094 413.371094c-6.09375 0-11.691406-3.320313-14.613282-8.667969l-3.394531-6.203125c-2.703125-4.941406-6.742187-8.980469-11.683593-11.683594l-6.207032-3.390625c-5.34375-2.925781-8.664062-8.527343-8.664062-14.617187s3.320312-11.691406 8.664062-14.613282l6.207032-3.394531c4.9375-2.703125 8.980468-6.742187 11.683593-11.683593l3.394531-6.207032c2.921876-5.34375 8.519532-8.664062 14.613282-8.664062 6.089844 0 11.691406 3.320312 14.613281 8.664062l3.394531 6.207032c2.703125 4.941406 6.742188 8.980468 11.683594 11.683593l6.207031 3.394531c5.34375 2.921876 8.664063 8.519532 8.664063 14.613282 0 6.089844-3.320313 11.691406-8.664063 14.613281l-6.207031 3.394531c-4.941406 2.703125-8.980469 6.742188-11.683594 11.683594l-3.394531 6.207031c-2.921875 5.34375-8.519531 8.664063-14.613281 8.664063zm0-74.125c-.449219 0-4.847656 7.070312-4.847656 7.070312-4.082032 7.460938-10.183594 13.5625-17.648438 17.644532 0 0-7.066406 4.398437-7.066406 4.847656 0 .449218 7.066406 4.847656 7.066406 4.847656 7.464844 4.082031 13.566406 10.183594 17.648438 17.644531 0 0 4.398437 7.070313 4.847656 7.070313.449218 0 4.847656-7.066406 4.847656-7.066406 4.082031-7.464844 10.183594-13.566407 17.648438-17.648438 0 0 7.066406-4.398438 7.066406-4.847656 0-.445313-7.066406-4.847656-7.066406-4.847656-7.464844-4.078126-13.566407-10.179688-17.648438-17.644532 0 0-4.398438-7.070312-4.847656-7.070312zm0 0"/></svg>