<svg height="512pt" viewBox="-28 0 512 512" width="512pt" xmlns="http://www.w3.org/2000/svg"><path d="m181.78125 416.03125c-10.785156 8.367188-25.851562 8.367188-36.640625 0-3.273437-2.539062-7.984375-1.941406-10.523437 1.332031-2.539063 3.273438-1.941407 7.984375 1.332031 10.523438 8.097656 6.28125 17.804687 9.421875 27.511719 9.421875 9.707031 0 19.414062-3.140625 27.515624-9.421875 3.273438-2.539063 3.867188-7.25 1.328126-10.523438-2.539063-3.273437-7.25-3.871093-10.523438-1.332031zm0 0"/><path d="m82.804688 405.15625c-7.140626 0-13.738282 3.5625-17.660157 9.53125-2.273437 3.460938-1.308593 8.109375 2.152344 10.382812 3.460937 2.277344 8.109375 1.3125 10.386719-2.148437 1.636718-2.496094 4.125-2.765625 5.121094-2.765625.996093 0 3.441406.296875 5.125 2.765625 3.503906 5.144531 9.117187 2.984375 10.382812 2.148437 3.464844-2.273437 4.425781-6.921874 2.152344-10.382812-3.917969-5.96875-10.519532-9.53125-17.660156-9.53125zm0 0"/><path d="m244.117188 405.15625c-7.136719 0-13.738282 3.5625-17.65625 9.53125-2.277344 3.460938-1.3125 8.109375 2.148437 10.382812 3.460937 2.277344 8.113281 1.3125 10.386719-2.148437 1.640625-2.496094 4.128906-2.765625 5.121094-2.765625.996093 0 3.445312.296875 5.125 2.765625 3.503906 5.144531 9.117187 2.984375 10.386718 2.148437 3.460938-2.273437 4.425782-6.921874 2.148438-10.382812-3.917969-5.96875-10.519532-9.53125-17.660156-9.53125zm0 0"/><path d="m455.191406 377.507812-14.242187-72.390624c-3.390625-17.21875-11.671875-32.945313-23.957031-45.480469l-20.210938-20.628907c-23.90625-20.910156-42.753906-10.429687-42.753906-10.429687-11.507813-21.761719-27.308594-39.925781-47.191406-54.273437-2.328126-10.308594-9.613282-18.757813-19.21875-22.695313 6.242187-8.847656 9.695312-19.46875 9.695312-30.496094 0-22.175781-13.71875-41.199219-33.113281-49.050781v-26.554688c0-25.09375-20.414063-45.507812-45.507813-45.507812h-110.460937c-25.09375 0-45.507813 20.414062-45.507813 45.507812v26.550782c-19.394531 7.855468-33.113281 26.878906-33.113281 49.054687 0 11.023438 3.453125 21.648438 9.695313 30.496094-11.730469 4.808594-20.011719 16.34375-20.011719 29.785156 0 10.960938 5.511719 20.652344 13.90625 26.46875l-12.089844 22.769531c-13.808594 26.015626-21.109375 55.335938-21.109375 84.789063v116.9375c0 43.914063 35.726562 79.640625 79.640625 79.640625h167.640625c43.914062 0 79.644531-35.726562 79.644531-79.640625v-103.601563c2.773438.402344 11.046875 1.703126 20.992188-.613281 11.8125-2.746093 22.546875-7.785156 29.984375-15.332031 8.183594-8.300781 11.644531-18.175781 9.75-27.796875-1.925782-9.789063-9.09375-17.6875-19.921875-22.179687-.128907-.542969-4.609375-14.273438-7.117188-20.265626 0 0 12.105469-5.125 25.453125 6.9375l20.214844 20.625c10.230469 10.441407 17.128906 23.539063 19.949219 37.882813l14.246093 72.386719c3.660157 18.609375-8.5 36.730468-27.128906 40.394531l-65.386718 13.03125c-4.0625.8125-6.699219 4.761719-5.890626 8.820313.710938 3.570312 3.746094 6.710937 8.824219 5.890624l65.367188-13.027343c26.726562-5.257813 44.191406-31.277344 38.929687-58.003907zm-102.265625-111.980468c1.417969 4.742187.839844 9.925781-1.582031 14.226562-2.25 3.980469-5.832031 6.777344-10.097656 7.875-8.300782 2.136719-13.808594-.625-17.097656-3.570312-3.285157-18.609375-9.457032-36.703125-18.335938-53.421875l-12.085938-22.773438c5.4375-3.769531 9.671876-9.164062 11.972657-15.484375 22.335937 18.492188 38.210937 43.039063 47.226562 73.148438zm-275.199219-220.019532c0-16.824218 13.683594-30.507812 30.503907-30.507812h110.460937c16.824219 0 30.507813 13.683594 30.507813 30.507812v22.921876c-1.582031-.140626-169.894531-.140626-171.472657 0zm-26.253906 118.703126h148.960938c4.140625 0 7.5-3.355469 7.5-7.5 0-4.140626-3.359375-7.5-7.5-7.5h-143.347656c-7.933594-7.1875-12.476563-17.382813-12.476563-28.097657 0-20.902343 17.003906-37.910156 37.910156-37.910156h161.886719c20.902344 0 37.910156 17.007813 37.910156 37.910156 0 10.714844-4.546875 20.910157-12.480468 28.097657h-37.351563c-4.140625 0-7.5 3.359374-7.5 7.5 0 4.144531 3.359375 7.5 7.5 7.5h42.964844c9.476562 0 17.183593 7.710937 17.183593 17.183593 0 9.472657-7.707031 17.179688-17.183593 17.179688h-223.976563c-9.472656 0-17.179687-7.707031-17.179687-17.179688 0-9.476562 7.707031-17.183593 17.179687-17.183593zm228.152344 49.085937 12.9375 24.371094c12.667969 23.855469 19.359375 50.742187 19.359375 77.753906v7.617187c-22.226563.347657-92.40625-1.253906-141.207031-32.527343-67.390625-53.917969-116.832032-57.851563-140.6875-44.046875 1.355468-2.972656 2.796875-5.910156 4.332031-8.796875l12.9375-24.371094c1.367187.175781 230.960937.175781 232.328125 0zm-32.34375 283.703125h-167.640625c-35.644531 0-64.640625-28.996094-64.640625-64.640625v-107.292969c5.820312 8.144532 14.273438 16.019532 25.5 23.421875 3.457031 2.28125 8.109375 1.328125 10.390625-2.128906 2.277344-3.460937 1.324219-8.113281-2.132813-10.390625-22.476562-14.820312-40.652343-28.835938-29.417968-54.941406 5.902344-13.710938 14.210937-21.886719 25.054687-25.164063 39.640625-11.988281 118.226563 47.277344 118.226563 47.277344 40.902344 26.210937 93.902344 33.0625 126.773437 34.597656-82.945312 39.144531-163.472656 32.871094-214.0625 12.082031-3.835937-1.574218-8.214843.253907-9.789062 4.085938s.253906 8.214844 4.085937 9.789062c25.613282 10.523438 58.414063 17.566407 95.214844 17.566407 45 0 95.980469-10.542969 147.082031-38.121094v89.21875c0 35.644531-29 64.640625-64.644531 64.640625zm125.652344-209.085938c1.222656 6.214844-3.054688 11.671876-5.71875 14.371094-5.261719 5.34375-13.351563 9.40625-22.195313 11.144532-6.25 1.230468-12.519531 1.246093-18.125.109374-.039062-3.808593-.203125-7.613281-.488281-11.410156 2.898438.84375 7.089844 3.074219 18.582031.027344 19.734375-5.234375 21.742188-19.839844 22.453125-22.390625 2.972656 2.261719 4.882813 5.046875 5.492188 8.148437zm0 0"/></svg>