<svg height="512pt" viewBox="0 -35 512.00079 512" width="512pt" xmlns="http://www.w3.org/2000/svg"><path d="m303.691406 297.140625c-15.367187 0-27.871094 14.183594-27.871094 31.621094s12.503907 31.625 27.871094 31.625c15.371094 0 27.875-14.1875 27.875-31.625s-12.503906-31.621094-27.875-31.621094zm0 48.25c-7.097656 0-12.871094-7.460937-12.871094-16.628906s5.773438-16.625 12.871094-16.625c7.101563 0 12.875 7.457031 12.875 16.625s-5.773437 16.628906-12.875 16.628906zm0 0"/><path d="m247.25 124.050781c-12.414062 0-22.515625 10.097657-22.515625 22.511719s10.101563 22.515625 22.515625 22.515625 22.511719-10.101563 22.511719-22.515625-10.097657-22.511719-22.511719-22.511719zm0 30.027344c-4.144531 0-7.515625-3.371094-7.515625-7.515625s3.371094-7.515625 7.515625-7.515625 7.511719 3.371094 7.511719 7.515625c.003906 4.144531-3.367188 7.515625-7.511719 7.515625zm0 0"/><path d="m221.460938 83.550781c12.414062 0 22.515624-10.101562 22.515624-22.515625 0-12.414062-10.101562-22.511718-22.515624-22.511718-12.414063 0-22.511719 10.097656-22.511719 22.511718 0 12.414063 10.097656 22.515625 22.511719 22.515625zm0-30.027343c4.144531 0 7.515624 3.367187 7.515624 7.511718 0 4.144532-3.371093 7.515625-7.515624 7.515625-4.144532 0-7.515626-3.371093-7.515626-7.515625.003907-4.144531 3.375-7.511718 7.515626-7.511718zm0 0"/><path d="m158.800781 118.386719c12.414063 0 22.511719-10.097657 22.511719-22.511719s-10.097656-22.515625-22.511719-22.515625c-12.414062 0-22.515625 10.101563-22.515625 22.515625s10.101563 22.511719 22.515625 22.511719zm0-30.027344c4.144531 0 7.511719 3.371094 7.511719 7.515625 0 4.140625-3.367188 7.511719-7.511719 7.511719s-7.515625-3.371094-7.515625-7.511719c0-4.144531 3.371094-7.515625 7.515625-7.515625zm0 0"/><path d="m503.117188 250.125c-8.378907-15.136719-22.445313-30.523438-39.609376-43.324219-9.96875-7.4375-20.714843-13.746093-31.214843-18.378906-.910157-2.109375-1.792969-4.089844-2.628907-5.933594 8.222657-6.1875 13.550782-16.023437 13.550782-27.085937 0-18.679688-15.199219-33.878906-33.878906-33.878906h-78.269532c3.214844-11.121094 2.617188-23.042969-1.914062-34.03125-5.984375-14.503907-18.050782-25.394532-33.105469-29.878907-7.132813-2.121093-13.117187-7.125-16.851563-14.085937-2.429687-4.523438-5.328124-8.683594-8.613281-12.453125 8.410157-10.128907 20.882813-16.074219 34.191407-16.074219 16.519531 0 31.585937 9.085938 39.308593 23.714844 6.835938 12.941406 16.597657 23.378906 28.21875 30.179687 12.058594 7.054688 20.964844 18.8125 24.4375 32.261719.875 3.378906 3.523438 6.429688 9.136719 5.386719 4.074219-.761719 6.421875-5.128907 5.386719-9.140625-4.464844-17.289063-15.90625-32.398438-31.386719-41.453125-9.207031-5.386719-16.996094-13.769531-22.527344-24.238281-10.332031-19.558594-30.476562-31.710938-52.574218-31.710938-17.550782 0-34.027344 7.71875-45.265626 20.914062-11.328124-8.261718-25.152343-12.933593-39.703124-12.933593-21.875 0-42.46875 10.6875-55.089844 28.589843-4.828125 6.855469-12.183594 11.296876-20.703125 12.507813-22.953125 3.269531-41.675781 19.84375-47.695313 42.230469-2.738281 10.175781-2.625 20.792968.207032 30.773437-15.789063 2.871094-27.804688 16.714844-27.804688 33.324219 0 11.058594 5.328125 20.894531 13.550781 27.082031-.851562 1.863281-1.734375 3.847657-2.636719 5.933594-10.578124 4.652344-21.0625 10.8125-31.207031 18.378906-19.703125 14.695313-34.800781 32.085938-42.507812 48.960938-8.382813 18.359375-7.84375 35.378906 1.519531 47.933593 7.730469 10.367188 27.640625 19.054688 49.320312 14.492188 3.949219 26.757812 14.804688 49.355469 32.355469 67.34375l-9.902343 9.902344c-10.644532 10.644531-10.644532 27.964844 0 38.609375 15.371093 15.371093 33.289062 5.324219 38.609374 0l17.738282-17.738281c31.214844 13.234374 71.683594 19.945312 120.410156 19.945312 69.832031 0 121.96875-13.660156 155.703125-40.65625l10.445313 10.445312c4.796874 4.796876 4.589843 12.402344 0 17.398438-6.980469 7.597656-15.074219 2.324219-17.398438 0-2.929688-2.929688-7.675781-2.929688-10.605469 0-2.929687 2.929688-2.929687 7.675781 0 10.605469 5.15625 5.15625 22.390625 17.023437 38.609375 0 10.386719-10.898438 10.644532-27.964844 0-38.609375l-9.910156-9.914063c5.710938-5.855469 10.742188-12.203125 15.050781-19.066406 8.910157-14.191406 14.691407-30.324219 17.339844-48.269531 31.726563 3.84375 44.847656-8.53125 49.292969-14.488282 6.0625-8.128906 13.941406-25.890624-1.378906-53.570312zm-49.757813 6.730469c4.164063 4.480469 7.65625 9.03125 10.273437 13.460937 1.078126 1.824219 1.867188 3.394532 2.445313 4.722656-1.433594-.175781-8.660156-1.945312-10.445313-2.554687-.5625-5.105469-1.324218-10.316406-2.273437-15.628906zm-25.144531-101.453125c0 10.410156-8.46875 18.882812-18.878906 18.882812h-96.96875v-36.246094c0-.507812-.019532-1.011718-.039063-1.515624h97.007813c10.410156 0 18.878906 8.46875 18.878906 18.878906zm-317.414063-60.203125c4.460938-16.578125 18.324219-28.851563 35.324219-31.273438 12.472656-1.777343 23.71875-8.597656 30.851562-18.714843 9.8125-13.921876 25.824219-22.234376 42.828126-22.234376 19.328124 0 37.023437 10.59375 46.175781 27.640626 5.636719 10.507812 14.796875 18.097656 25.785156 21.371093 10.699219 3.183594 19.269531 10.917969 23.519531 21.222657 3.792969 9.183593 3.714844 19.292968-.101562 28.3125h-6.605469c-6.152344-12.675782-19.15625-21.4375-34.167969-21.4375h-66.0625c-15.011718 0-28.011718 8.761718-34.164062 21.4375h-62.054688c-3.191406-8.378907-3.683594-17.570313-1.328125-26.324219zm130.578125 91.195312c-13.382812 0-24.273437 10.890625-24.273437 24.277344v47.246094c0 8.742187-7.113281 15.855469-15.855469 15.855469s-15.855469-7.113282-15.855469-15.855469v-119.878907c0-12.65625 10.296875-22.953124 22.957031-22.953124h66.058594c12.660156 0 22.957032 10.296874 22.957032 22.953124v95.929688c0 8.742188-7.113282 15.855469-15.855469 15.855469-8.742188 0-15.855469-7.113281-15.855469-15.855469v-23.296875c0-13.386719-10.890625-24.277344-24.277344-24.277344zm-138.78125-49.871093h67.835938c-.019532.503906-.039063 1.007812-.039063 1.515624v36.246094h-67.796875c-10.410156 0-18.878906-8.472656-18.878906-18.882812s8.46875-18.878906 18.878906-18.878906zm-56.710937 138.511718c2.613281-8.054687 8.160156-15.015625 12.996093-19.921875-1.050781 5.679688-1.925781 11.480469-2.570312 17.367188-1.777344.605469-8.996094 2.378906-10.425781 2.554687zm61.328125 148.398438c-2.324219 2.324218-11.566406 5.832031-17.398438 0-5.832031-5.828125-2.324218-15.074219 0-17.398438l23.164063-23.164062c2.324219-2.324219 11.152343-6.246094 17.398437 0 6.25 6.25 2.324219 15.074218 0 17.398437zm317.945312-64.957032c-26.152344 41.65625-83.078125 62.773438-169.191406 62.773438-44.398438 0-81.382812-5.695312-110.128906-16.941406 2.050781-3.878906 8.082031-19.105469-4.855469-32.042969-20.179687-20.175781-41.257813 2.648437-41.257813 2.648437-15.582031-16.046874-25.09375-36.414062-28.359374-60.671874 5.890624-2.050782 11.917968-4.675782 17.992187-7.863282 3.667969-1.925781 5.082031-6.457031 3.15625-10.125-1.925781-3.667968-6.457031-5.082031-10.125-3.15625-14.273437 7.484375-27.925781 11.445313-39.488281 11.445313-7.351563 0-17.390625-1.703125-23.441406-9.816407-7.613282-10.207031-4.144532-23.433593.101562-32.734374 6.679688-14.625 20.117188-29.957032 37.832031-43.171876 4.578125-3.414062 9.226563-6.496093 13.90625-9.265624-2.394531 6.71875-4.738281 13.96875-6.867187 21.632812-9.148438 6.082031-46.75 40.898438-32.464844 56.132812 11.445312 12.210938 49.347656-8.964843 62.507812-18.785156 25.511719-19.027344 33.226563-36.683594 34.984376-41.640625 1.316406-3.714843 5.410156-5.667969 9.128906-4.355469 3.71875 1.316407 5.671875 5.414063 4.351562 9.132813-5.027344 14.195313-17.460937 30.160156-34.113281 43.796875-3.203125 2.625-3.671875 7.351562-1.046875 10.554688 2.621094 3.207031 7.347656 3.675781 10.550781 1.050781 18.984375-15.546875 32.746094-33.445313 38.75-50.394531 4.078125-11.515626-1.972656-24.199219-13.484375-28.277344-11.515625-4.074219-24.199218 1.972656-28.277344 13.484375-2.75 7.769531-12.210937 21.5-29.808593 34.628906-4.316407 3.21875-8.71875 6.101563-13.089844 8.585937 4.914063-31.972656 16.449219-60.863281 23.542969-76.476562 2.148437.429688 74.433594.65625 74.433594.65625v68.636719c0 17.011719 13.839843 30.851562 30.855468 30.851562 17.011719 0 30.851563-13.839843 30.851563-30.851562v-47.246094c0-5.117187 4.164062-9.277344 9.277343-9.277344 5.113282 0 9.277344 4.160157 9.277344 9.277344v23.296875c0 17.011719 13.839844 30.855469 30.855469 30.855469 17.011719 0 30.855469-13.84375 30.855469-30.855469v-44.6875s101.457031-.230469 103.605468-.65625c14.320313 31.492188 44.90625 112.957031 9.183594 169.851562zm67.3125-63.75c-1.769531 2.375-15.058594 13.277344-35.792968 8.425782.238281-4.777344.273437-9.671875.113281-14.675782.140625.039063 18.34375 7.984376 25.023437-3.632812 2.542969-4.421875.199219-12.902344-5.269531-22.160156-6.28125-10.628906-16.539063-21.652344-28.992187-31.199219-2.160157-7.796875-4.535157-15.15625-6.945313-21.925781 4.730469 2.792968 9.414063 5.894531 13.929687 9.265625 15.492188 11.554687 28.085938 25.25 35.457032 38.566406 11.238281 20.304687 6.375 32.109375 2.476562 37.335937zm0 0"/><path d="m382.476562 295.058594c-4.046874 0-7.324218 3.28125-7.324218 7.324218v12.164063c0 4.042969 3.277344 7.324219 7.324218 7.324219 4.046876 0 7.324219-3.28125 7.324219-7.324219v-12.164063c0-4.042968-3.277343-7.324218-7.324219-7.324218zm0 0"/><path d="m224.910156 295.058594c-4.046875 0-7.328125 3.28125-7.328125 7.324218v12.164063c0 4.042969 3.28125 7.324219 7.328125 7.324219s7.324219-3.28125 7.324219-7.324219v-12.164063c0-4.042968-3.277344-7.324218-7.324219-7.324218zm0 0"/></svg>