<svg height="511pt" viewBox="1 -8 511.99988 511" width="511pt" xmlns="http://www.w3.org/2000/svg"><path d="m395.617188 286.242188 21.683593-21.6875c12.589844-12.585938 12.589844-33.074219 0-45.664063-12.589843-12.589844-33.074219-12.585937-45.664062 0l-45.675781 45.675781-4.617188-4.613281s28.730469-31.464844 1.105469-59.085937l-8.914063-8.917969c13.214844-16.972657 12.035156-41.59375-3.558594-57.1875-9.78125-9.78125-23.121093-13.882813-35.894531-12.324219-2.523437-16.488281-7.675781-32.535156-15.101562-46.839844-20.539063-39.582031-55.558594-60.308594-91.390625-54.085937-8.976563 1.5625-16.671875 4.082031-23.273438 7.195312-17.015625-13.945312-34.683594-21.796875-52.558594-23.308593-8.976562-.757813-20.464843-.066407-32.867187 4.800781-13.605469-13.085938-35.3125-12.933594-48.71875.472656s-13.558594 35.113281-.472656 48.71875c-4.867188 12.402344-5.5625 23.890625-4.800781 32.867187 1.488281 17.640626 9.53125 35.71875 23.304687 52.5625-10.492187 20.035157-8.617187 38.289063-7.582031 45.742188.566406 4.101562 4.398437 7.222656 8.457031 6.398438 5.894531-1.199219 6.800781-6.050782 6.398437-8.460938-7.273437-43.679688 32.570313-64.214844 34.496094-65.066406 1.0625 11.089844 5.269532 22.449218 12.492188 32.613281-6.988282 4.160156-11.75 10.917969-13.835938 19.882813-3.359375 14.441406 7.367188 29.667968 28.691406 40.730468 17.988282 9.335938 39.019532 13.050782 58.554688 10.972656l-21.613281 21.613282c-3.261719 3.261718-5.886719 6.921875-7.886719 10.824218-15.636719-2.144531-30.886719-6.90625-44.367188-13.902343-16.191406-8.402344-29.054687-19.699219-37.199218-32.667969-2.203125-3.507812-6.832032-4.566406-10.339844-2.363281-3.503906 2.203125-4.566406 6.832031-2.363281 10.339843 9.5625 15.230469 24.429687 28.371094 42.992187 38.003907 14.296875 7.421875 30.347656 12.582031 46.835938 15.105469-1.554688 12.773437 2.546875 26.109374 12.328125 35.890624 15.59375 15.59375 40.214843 16.769532 57.1875 3.554688l8.914062 8.917969c27.804688 27.804687 59.085938-1.105469 59.085938-1.105469l111.785156 111.785156c2.929687 2.929688 7.679687 2.929688 10.605469 0 2.929687-2.929687 2.929687-7.679687 0-10.605468l-111.78125-111.785157 40.679687-40.679687 160.199219 160.195312c11.214844 11.214844 11.214844 29.464844 0 40.679688-11.21875 11.21875-29.464844 11.21875-40.683594 0l-27.121094-27.121094c-2.929687-2.925781-7.675781-2.925781-10.605468 0-2.929688 2.929688-2.929688 7.679688 0 10.609375l27.121094 27.121094c17.0625 17.066406 44.832031 17.0625 61.894531 0 17.066406-17.0625 17.066406-44.832031 0-61.894531l-.257813-.257813 21.273438-21.269531c12.589844-12.589844 12.589844-33.078125 0-45.664063-12.589844-12.589843-33.074219-12.589843-45.664063 0l-21.273437 21.269531-6.929688-6.933593 36.59375-36.59375c12.589844-12.585938 12.589844-33.074219 0-45.664063s-33.074218-12.589844-45.664062 0l-12.605469 12.605469c-3.140625 3.140625-8.253906 3.140625-11.398437 0-3.140626-3.144531-3.140626-8.257813 0-11.398437zm-149.949219-203.734376c7 13.488282 11.761719 28.726563 13.902343 44.367188-3.898437 2-7.558593 4.625-10.820312 7.886719l-21.589844 21.589843c2.082032-19.507812-1.632812-40.488281-10.996094-58.535156-11.066406-21.320312-26.292968-32.046875-40.734374-28.6875-8.910157 2.070313-15.675782 6.867188-19.855469 13.855469-10.167969-7.234375-21.539063-11.449219-32.640625-12.511719.851562-1.925781 6.613281-25.660156 47.226562-34.183594 28.960938-6.074218 58.089844 12.648438 75.507813 46.21875zm-224.886719-61.226562c6.328125-6.332031 15.914062-7.460938 23.414062-3.410156-4.890624 3.230468-9.824218 7.214844-14.71875 12.105468-4.890624 4.894532-8.875 9.828126-12.105468 14.71875-4.050782-7.5-2.921875-17.085937 3.410156-23.414062zm15.75 109.851562c-12.207031-16.375-15.878906-30.597656-16.6875-40.136718-1.070312-12.691406 1.570312-31.738282 20.242188-50.414063 18.671874-18.671875 37.71875-21.3125 50.410156-20.238281 13.386718 1.132812 26.863281 6.742188 40.144531 16.683594-8.425781 6.484375-15.574219 14.570312-20.613281 25.613281-16.789063-11.957031-33.429688-11.554687-46.4375 1.449219-9.253906 9.257812-12.269532 20.40625-8.71875 32.25 1.40625 4.679687 3.855468 9.425781 7.261718 14.183594-11.433593 4.644531-19.117187 12.1875-25.601562 20.609374zm62.703125-57.738281c-5.960937 2.234375-11.425781 5.640625-16.0625 10.277344-4.621094 4.621094-8.023437 10.070313-10.261719 16.011719-1.683594-2.652344-2.9375-5.226563-3.667968-7.65625-1.949219-6.492188-.371094-12 4.957031-17.328125 3.078125-3.078125 10.597656-10.585938 25.035156-1.304688zm-5.453125 20.882813c14.710938-14.710938 41.996094-11.363282 60.820312 7.464844 18.828126 18.828124 22.175782 46.113281 7.464844 60.824218-14.710937 14.710938-41.996094 11.363282-60.824218-7.464844-18.824219-18.824218-22.171876-46.113281-7.460938-60.824218zm10.445312 109.070312c-6.769531-3.515625-12.609374-7.855468-16.433593-12.21875-3.828125-4.363281-11.859375-13.5 4.90625-23.441406 24.625 22.859375 59.980469 25.484375 79.976562 5.488281 19.988281-19.992187 17.371094-55.332031-5.46875-79.957031 7.261719-15.503906 19.058594-8.753906 23.421875-4.925781 4.367188 3.824219 8.703125 9.664062 12.21875 16.4375 11.917969 22.960937 13.191406 51.292969 3.363282 72.570312l-29.421876 29.421875c-21.242187 9.808594-49.6875 8.496094-72.5625-3.375zm106.746094 108.996094-8.671875-8.671875 62.453125-62.453125c2.929688-2.929688 2.929688-7.679688 0-10.609375-2.929687-2.925781-7.675781-2.925781-10.605468 0l-69.261719 69.261719c-11.03125 11.03125-28.984375 11.03125-40.015625 0-11.035156-11.03125-11.035156-28.984375 0-40.015625l114.484375-114.484375c11.03125-11.03125 28.984375-11.03125 40.015625 0s11.03125 28.984375 0 40.015625l-23.800782 23.800781c-2.929687 2.925781-2.929687 7.675781 0 10.605469 2.929688 2.929687 7.679688 2.929687 10.609376 0l16.992187-16.992188 8.671875 8.671875c10.136719 10.136719 10.136719 26.628906 0 36.765625l-64.105469 64.105469c-10.136719 10.136719-26.628906 10.136719-36.765625 0zm256.527344 51.21875c6.742188-6.742188 17.710938-6.742188 24.449219 0 6.742187 6.742188 6.742187 17.707031 0 24.449219l-21.269531 21.273437-24.449219-24.449218zm-49.875-55.316406 12.601562-12.601563c6.742188-6.742187 17.710938-6.742187 24.453126 0 6.738281 6.738281 6.738281 17.707031 0 24.449219l-36.597657 36.59375-81.511719-81.511719 45.675782-45.675781c6.742187-6.742188 17.707031-6.742188 24.449218 0 6.742188 6.742188 6.742188 17.707031 0 24.449219l-21.683593 21.683593c-8.992188 8.992188-8.992188 23.625 0 32.613282 8.992187 8.992187 23.621093 8.992187 32.613281 0zm0 0"/></svg>