<svg height="511pt" viewBox="0 -45 511.99969 511" width="511pt" xmlns="http://www.w3.org/2000/svg"><path d="m336.636719 125.367188c4.140625 0 7.496093-3.355469 7.496093-7.496094v-12.449219c0-4.140625-3.355468-7.5-7.496093-7.5s-7.5 3.359375-7.5 7.5v12.449219c0 4.140625 3.359375 7.496094 7.5 7.496094zm0 0"/><path d="m175.363281 125.367188c4.144531 0 7.5-3.355469 7.5-7.496094v-12.449219c0-4.140625-3.355469-7.5-7.5-7.5-4.140625 0-7.496093 3.359375-7.496093 7.5v12.449219c0 4.140625 3.355468 7.496094 7.496093 7.496094zm0 0"/><path d="m506.925781 173.007812-52.664062-125.476562c-11.988281-28.570312-39.757813-47.03125-70.742188-47.03125h-255.039062c-30.984375 0-58.753907 18.460938-70.742188 47.03125l-52.660156 125.476562c-11.039063 26.296876-3.691406 56.183594 18.28125 74.371094l192.65625 159.4375c11.585937 9.589844 25.78125 14.382813 39.984375 14.382813 14.199219 0 28.402344-4.796875 39.984375-14.382813l192.65625-159.4375c21.972656-18.183594 29.320313-48.074218 18.285156-74.371094zm-488.023437 5.800782 52.660156-125.472656c3.199219-7.625 7.804688-14.347657 13.425781-19.9375l29.265625 69.730468c1.203125 2.871094 4.59375 5.722656 9.816406 4.011719 3.933594-1.289063 5.613282-5.996094 4.011719-9.816406l-30.800781-73.382813c9.257812-5.417968 19.964844-8.445312 31.199219-8.445312h116.242187l-23.730468 56.539062c-1.601563 3.816406.195312 8.214844 4.011718 9.816406 3.820313 1.601563 8.214844-.195312 9.816406-4.015624l21.179688-50.464844 21.179688 50.464844c1.207031 2.875 3.824218 6.398437 9.816406 4.015624 3.847656-1.53125 5.613281-6 4.011718-9.816406l-23.730468-56.539062h116.242187c11.234375 0 21.9375 3.027344 31.199219 8.445312l-30.800781 73.382813c-1.601563 3.820312.128906 8.378906 4.011719 9.816406 5.265624 1.953125 8.613281-1.140625 9.816406-4.011719l29.261718-69.730468c5.625 5.589843 10.226563 12.3125 13.425782 19.9375l52.660156 125.472656c3.894531 9.277344 4.796875 19.136718 3.003906 28.4375h-142.050781l17.636719-42.015625c1.601562-3.820313-.195313-8.214844-4.015625-9.816407-3.816407-1.597656-8.210938.195313-9.8125 4.011719l-20.070313 47.824219h-163.570312l-20.070313-47.824219c-1.601562-3.816406-5.996093-5.609375-9.816406-4.011719-3.816406 1.605469-5.613281 5.996094-4.011719 9.816407l17.636719 42.015625h-142.050781c-1.792969-9.296875-.890625-19.160156 3-28.4375zm2.558594 43.4375h142.0625l43.683593 157.816406-174.285156-144.238281c-4.722656-3.90625-8.5625-8.519531-11.460937-13.578125zm205.90625 174.425781-48.28125-174.425781h153.828124l-48.28125 174.425781c-16.933593 12.707031-40.335937 12.707031-57.265624 0zm251.710937-160.847656-174.285156 144.238281 43.679687-157.816406h142.066406c-2.898437 5.058594-6.738281 9.671875-11.460937 13.578125zm0 0"/><path d="m256 174.058594c19.625 0 35.589844-15.964844 35.589844-35.589844v-20.425781c0-8.363281-6.804688-15.167969-15.164063-15.167969h-40.851562c-8.363281 0-15.164063 6.804688-15.164063 15.167969v20.425781c0 19.625 15.964844 35.589844 35.589844 35.589844zm-20.421875-56.1875h40.847656c.09375 0 .171875 20.597656.171875 20.597656-.003906 11.355469-9.242187 20.59375-20.597656 20.59375s-20.59375-9.238281-20.59375-20.59375c0 0 .074219-20.597656.171875-20.597656zm0 0"/></svg>