<svg height="512pt" viewBox="-25 0 512 512.001" width="512pt" xmlns="http://www.w3.org/2000/svg"><path d="m462.5 169.707031c0-93.574219-76.132812-169.707031-169.707031-169.707031-39.972657 0-78.796875 14.167969-109.316407 39.890625-3.167968 2.667969-3.570312 7.398437-.898437 10.570313 2.667969 3.164062 7.398437 3.570312 10.566406.898437 27.820313-23.445313 63.207031-36.359375 99.648438-36.359375 85.304687 0 154.707031 69.402344 154.707031 154.707031v93.363281c0 26.449219-13.609375 50.40625-47.84375 72.054688-14.308594 9.050781-18.078125 19.140625-18.078125 32.203125v6.539063c0 4.144531 3.359375 7.5 7.5 7.5s7.5-3.355469 7.5-7.5v-6.539063c0-7.867187 4.171875-15.300781 10.890625-19.394531 0 0 17.398438-10.890625 20.261719-13.164063v99.140625c0 34.785156-28.300781 63.089844-63.085938 63.089844h-131.960937c-57.992188 0-53.914063-60.355469-53.914063-60.355469 15.476563-3.769531 27-17.742187 27-34.363281v-8.953125c3.515625-2.65625 7.761719-4.117187 12.246094-4.117187 4.5625 0 8.871094 1.507812 12.417969 4.25v8.820312c0 19.503906 15.867187 35.371094 35.371094 35.371094 19.503906 0 35.371093-15.867188 35.371093-35.371094v-9.007812c3.5-2.621094 7.71875-4.058594 12.167969-4.058594 4.609375 0 8.9375 1.523437 12.492188 4.304687v8.761719c0 19.503906 15.867187 35.371094 35.371093 35.371094 19.503907 0 35.371094-15.867188 35.371094-35.371094 0-4.140625-3.359375-7.5-7.5-7.5s-7.5 3.359375-7.5 7.5c0 11.234375-9.140625 20.371094-20.371094 20.371094s-20.371093-9.136719-20.371093-20.371094v-32.089844c0-15.070312-12.261719-27.328125-27.332032-27.328125-15.070312 0-27.328125 12.257813-27.328125 27.328125v32.089844c0 11.234375-9.140625 20.371094-20.371093 20.371094-11.234376 0-20.371094-9.136719-20.371094-20.371094v-32.089844c0-15.070312-12.261719-27.328125-27.332032-27.328125-15.070312 0-27.332031 12.257813-27.332031 27.328125v32.089844c0 11.234375-9.136719 20.371094-20.371093 20.371094-11.230469 0-20.371094-9.136719-20.371094-20.371094v-25.628906c0-10.535156-7.089844-19.882813-17.242188-22.734375-21.691406-6.097657-37.363281-24.496094-39.929687-46.875-1.957031-17.0625 4.273437-34.230469 16.660156-46.125h43.078125c6.675781 18.34375 20.503906 30.027343 35.890625 30.027343 11.210937 0 21.566406-5.992187 29.152344-16.875 7.011719-10.058593 10.875-23.296874 10.875-37.277343s-3.863281-27.222657-10.875-37.277344c-7.585938-10.882813-17.941407-16.875-29.152344-16.875-15.09375 0-28.550781 11.085937-35.394531 28.6875h-15.007813v-41.621094c0-35.519531 11.707031-68.921875 33.851563-96.59375 2.589844-3.234375 2.066406-7.953125-1.167969-10.542969-3.234375-2.585937-7.953125-2.0625-10.542969 1.171876-23.949218 29.925781-37.140625 67.558593-37.140625 105.964843v41.621094h-35.695312s-15.691407-28.6875-42.457031-28.6875h-25.511719c-7.179688 0-13.671875 3.96875-16.945313 10.359375-3.269531 6.390625-2.695312 13.976562 1.5 19.800781l16.847656 23.382813-17.367187 24.8125c-4.085937 5.835937-4.582031 13.386718-1.292969 19.707031 3.292969 6.316406 9.761719 10.242187 16.882813 10.242187h25.886719c27.996093 0 45-30.027343 45-30.027343-9.519532 13.855469-13.917969 30.886719-11.976563 47.835937 3.265625 28.457032 23.195313 51.855469 50.773437 59.605469 3.710938 1.042969 6.300782 4.453125 6.300782 8.296875v25.628906c0 17.234375 12.390625 31.617188 28.730468 34.738282 0 0-3.429687 74.976562 68.925782 74.976562h131.957031c43.058594 0 78.089844-35.027344 78.089844-78.089844v-114.183594c12.5625-15.949218 19.769531-35.925781 19.769531-56.65625zm-148.996094 188.15625c6.800782 0 12.332032 5.53125 12.332032 12.328125v6.320313c-3.964844-1.5-8.195313-2.296875-12.492188-2.296875-4.21875 0-8.320312.738281-12.167969 2.144531v-6.167969c0-6.796875 5.53125-12.328125 12.328125-12.328125zm-95.402344 0c6.800782 0 12.332032 5.53125 12.332032 12.328125v6.257813c-3.917969-1.464844-8.105469-2.234375-12.417969-2.234375-4.246094 0-8.375.746094-12.246094 2.171875v-6.195313c0-6.796875 5.535157-12.328125 12.332031-12.328125zm-34.292968-131.535156c5.398437 0 9.792968 4.394531 9.792968 9.792969 0 5.402344-4.394531 9.796875-9.792968 9.796875h-121.476563c-5.402343 0-9.796875-4.394531-9.796875-9.796875 0-5.398438 4.394532-9.792969 9.796875-9.792969zm4.675781-28.6875c13.566406 0 25.027344 17.929687 25.027344 39.152344 0 21.226562-11.460938 39.152343-25.027344 39.152343-7.628906 0-14.847656-5.703124-19.582031-15.027343h14.90625c13.671875 0 24.792968-11.121094 24.792968-24.796875 0-13.671875-11.121093-24.792969-24.792968-24.792969h-14.171875c4.738281-8.457031 11.675781-13.6875 18.847656-13.6875zm-143.554687 78.304687h-25.886719c-2.207031 0-3.238281-1.515624-3.578125-2.171874-.339844-.652344-.992188-2.367188.273437-4.175782l20.425781-29.171875c1.828126-2.613281 1.804688-6.101562-.058593-8.6875l-19.960938-27.707031c-1.304687-1.804688-.65625-3.535156-.320312-4.195312.339843-.660157 1.363281-2.195313 3.589843-2.195313h25.515626c16.917968 0 24.59375 13.6875 24.59375 13.6875h-7.191407c-13.671875 0-24.796875 11.121094-24.796875 24.792969 0 13.675781 11.125 24.796875 24.796875 24.796875h8.058594s-10.59375 15.027343-25.460937 15.027343zm0 0"/><path d="m265.421875 320.976562c16.871094 0 30.597656-13.726562 30.597656-30.597656 0-15.269531-11.914062-44.460937-30.597656-44.460937s-30.601563 29.191406-30.601563 44.460937c0 16.871094 13.726563 30.597656 30.601563 30.597656zm0-60.058593c6.121094 0 15.597656 17.894531 15.597656 29.460937 0 8.597656-6.996093 15.597656-15.597656 15.597656s-15.601563-6.996093-15.601563-15.597656c0-11.566406 9.476563-29.460937 15.601563-29.460937zm0 0"/><path d="m342.355469 290.945312c11.210937 0 21.5625-5.992187 29.152343-16.875 7.011719-10.058593 10.875-23.296874 10.875-37.277343s-3.863281-27.21875-10.875-37.277344c-7.585937-10.882813-17.941406-16.875-29.152343-16.875-11.210938 0-21.566407 5.992187-29.152344 16.875-7.011719 10.058594-10.875 23.296875-10.875 37.277344s3.863281 27.222656 10.875 37.277343c7.585937 10.882813 17.941406 16.875 29.152344 16.875zm0-93.304687c13.566406 0 25.027343 17.929687 25.027343 39.152344 0 21.226562-11.460937 39.152343-25.027343 39.152343-13.566407 0-25.027344-17.929687-25.027344-39.152343 0-21.222657 11.460937-39.152344 25.027344-39.152344zm0 0"/></svg>