<svg height="512pt" viewBox="0 0 512.002 512" width="512pt" xmlns="http://www.w3.org/2000/svg"><path d="m418.375 136.808594c7.292969 7.296875 19.164062 7.292968 26.457031 0l12.304688-12.304688c7.292969-7.292968 7.292969-19.164062 0-26.457031l-43.183594-43.183594c-7.292969-7.292969-19.164063-7.292969-26.457031 0l-12.304688 12.304688c-7.292968 7.292969-7.296875 19.164062 0 26.457031zm-32.574219-59.035156 12.300781-12.300782c1.449219-1.449218 3.800782-1.445312 5.246094 0l43.183594 43.183594c1.445312 1.445312 1.445312 3.796875 0 5.242188l-12.304688 12.304687c-1.445312 1.445313-3.796874 1.445313-5.246093 0l-43.179688-43.179687c-1.449219-1.449219-1.449219-3.800782 0-5.25zm0 0"/><path d="m283.652344 377.34375-26.828125-65.710938 83.105469-83.105468c2.925781-2.929688 2.925781-7.675782 0-10.605469-2.929688-2.929687-7.679688-2.929687-10.609376 0l-171.015624 171.019531c-9.71875 9.714844-25.527344 9.714844-35.242188 0-9.71875-9.71875-9.71875-25.527344 0-35.242187l185.960938-185.964844c.015624.019531.035156.039063.050781.054687l35.140625 35.140626c15.515625 15.515624 40.765625 15.515624 56.285156 0l13.554688-13.554688c22.710937 6.015625 47.945312.15625 65.722656-17.621094l12.304687-12.304687c26.558594-26.5625 26.558594-69.78125-.003906-96.34375l-43.179687-43.183594c-26.5625-26.5625-69.785157-26.5625-96.34375 0-2.929688 2.929687-2.929688 7.679687 0 10.605469 2.925781 2.929687 7.675781 2.929687 10.605468 0 20.714844-20.710938 54.417969-20.710938 75.128906.003906l43.183594 43.179688c20.714844 20.714843 20.714844 54.417968 0 75.132812l-12.300781 12.304688c-20.714844 20.714843-54.421875 20.714843-75.132813 0l-43.183593-43.183594c-16.800781-16.800782-20.378907-42.996094-8.695313-63.695313 2.035156-3.609375.765625-8.183593-2.847656-10.21875-3.605469-2.035156-8.179688-.761719-10.214844 2.84375-8.949218 15.855469-10.910156 34.222657-6.449218 51.039063l-13.574219 13.570312c-11.746094 11.746094-14.59375 29.066406-8.554688 43.527344l-100.152343 100.144531-65.707032-26.828125c-29.34375-11.980468-62.773437-3.953125-83.183594 19.980469-12.609374 14.789063-23.128906 30.421875-31.261718 46.46875-1.503906 2.96875-1.824219 7.921875 3.296875 10.078125 3.820312 1.609375 8.207031.398438 10.082031-3.296875 7.597656-14.988281 17.453125-29.628906 29.296875-43.515625 16.199219-18.996094 42.761719-25.355469 66.097656-15.828125l59.875 24.445313-76.410156 76.414062c-13.75 13.75-15.34375 35.117188-4.796875 50.644531l-67.035156 67.035157c-4.175782-5.109376-7.699219-10.78125-10.441406-16.910157-16.832032-37.679687-19.660157-75.695312-8.402344-112.992187 1.195312-3.964844-1.050782-8.148438-5.015625-9.347656-3.964844-1.195313-8.148438 1.046874-9.347657 5.015624-12.324218 40.847657-9.273437 82.378907 9.070313 123.441407 4.535156 10.148437 10.84375 19.265625 18.558594 26.976562 7.710937 7.714844 16.828125 14.023438 26.976562 18.554688 39.71875 17.746093 79.929688 21.183593 119.507813 10.210937 28.652344-7.941406 56.289062-23.148437 82.144531-45.199218 23.933594-20.410157 31.964844-53.839844 19.980469-83.179688zm36.027344-255.234375 9.003906-9.003906c3.046875 5.585937 6.910156 10.808593 11.566406 15.464843l43.179688 43.183594c4.691406 4.691406 9.910156 8.535156 15.457031 11.570313l-8.996094 9c-9.667969 9.667969-25.402344 9.667969-35.074219-.003907l-35.136718-35.136718c-9.667969-9.671875-9.667969-25.402344 0-35.074219zm-65.738282 327c-24.179687 20.621094-49.890625 34.804687-76.414062 42.160156-36.132813 10.015625-72.933594 6.835938-109.386719-9.449219-6.132813-2.742187-11.800781-6.265624-16.910156-10.441406l67.035156-67.035156c15.527344 10.546875 36.890625 8.957031 50.644531-4.796875l76.410156-76.410156 24.445313 59.875c9.527344 23.335937 3.167969 49.898437-15.824219 66.097656zm0 0"/></svg>