<svg height="512pt" viewBox="0 -43 512 512" width="512pt" xmlns="http://www.w3.org/2000/svg"><path d="m489.925781 234.574219c-14.847656-22.015625-34.882812-34.144531-56.417969-34.144531h-43.75c18.113282-21.109376 28.898438-53.046876 28.898438-87.644532 0-25.070312-5.546875-48.773437-16.035156-68.554687-1.941406-3.660157-6.480469-5.054688-10.140625-3.113281-3.660157 1.941406-5.054688 6.484374-3.113281 10.144531 9.347656 17.621093 14.289062 38.894531 14.289062 61.523437 0 36.808594-13.929688 71.101563-35.53125 87.644532h-55.925781c-21.640625-16.5625-35.53125-50.660157-35.53125-87.644532 0-26.644531 6.929687-51.59375 19.511719-70.253906 11.972656-17.753906 27.59375-27.53125 43.980468-27.53125 11.554688 0 22.90625 4.9375 32.835938 14.273438 3.015625 2.835937 7.761718 2.695312 10.601562-.324219 2.835938-3.019531 2.691406-7.765625-.324218-10.601563-12.761719-12.003906-27.667969-18.347656-43.109376-18.347656h-180.492187c-21.535156 0-41.570313 12.125-56.417969 34.144531-14.234375 21.113281-22.074218 49.039063-22.074218 78.640625 0 34.820313 10.742187 66.597656 28.867187 87.648438h-31.554687c-21.535157 0-41.570313 12.125-56.417969 34.144531-14.234375 21.109375-22.074219 49.039063-22.074219 78.640625s7.839844 57.527344 22.074219 78.640625c14.847656 22.019531 34.882812 34.144531 56.417969 34.144531h355.015624c21.535157 0 41.570313-12.125 56.417969-34.144531 14.234375-21.113281 22.074219-49.039063 22.074219-78.640625s-7.839844-57.53125-22.074219-78.644531zm-224.449219-156.683594h-42.785156c-8.027344 0-14.554687-6.53125-14.554687-14.554687 0-8.023438 6.527343-14.554688 14.554687-14.554688h52.738282c-4.296876 8.988281-7.640626 18.777344-9.953126 29.109375zm-166.980468 8.792969h52.578125c8.035156 0 14.796875 6.285156 15.070312 14.015625.144531 3.992187-1.300781 7.773437-4.066406 10.640625-2.769531 2.867187-6.488281 4.449218-10.476563 4.449218h-55.386718c-.019532-1-.996094-16.539062 2.28125-29.105468zm-1.210938 44.105468h54.316406c8.09375 0 15.644532-3.210937 21.269532-9.03125 5.617187-5.824218 8.554687-13.492187 8.265625-21.59375-.558594-15.703124-14.042969-28.480468-30.0625-28.480468h-48.972657c3.269532-10.738282 7.828126-20.609375 13.589844-29.152344 11.96875-17.753906 27.589844-27.527344 43.980469-27.527344h141.117187c-6.097656 5.0625-11.742187 11.355469-16.796874 18.78125h-61.300782c-16.296875 0-29.554687 13.257813-29.554687 29.554688 0 16.292968 13.257812 29.550781 29.554687 29.550781h40.199219c-.792969 6.507813-1.222656 13.15625-1.222656 19.898437 0 34.75 10.753906 66.574219 28.878906 87.644532h-158.855469c-18.082031-13.839844-30.730468-39.855469-34.40625-69.644532zm-79.109375 151.972657h57.390625c8.027344 0 14.554688 6.527343 14.554688 14.550781s-6.527344 14.554688-14.554688 14.554688h-60.542968c.085937-10.039063 1.160156-19.820313 3.152343-29.105469zm60.316407 128.242187c-16.390626 0-32.011719-9.777344-43.980469-27.53125-10.40625-15.433594-16.929688-35.171875-18.882813-56.605468h59.941406c16.292969 0 29.550782-13.257813 29.550782-29.554688s-13.257813-29.550781-29.550782-29.550781h-53.230468c3.125-9.058594 7.199218-17.425781 12.171875-24.800781 11.972656-17.753907 27.589843-27.53125 43.980469-27.53125h141.117187c-6.195313 5.148437-11.929687 11.558593-17.042969 19.144531-14.234375 21.113281-22.074218 49.042969-22.074218 78.644531 0 18.066406 2.933593 35.5 8.445312 51.148438h-51.574219c-8.023437 0-14.554687-6.527344-14.554687-14.550782 0-8.027344 6.53125-14.554687 14.554687-14.554687h21.863281c4.144532 0 7.5-3.355469 7.5-7.5 0-4.140625-3.355468-7.5-7.5-7.5h-21.863281c-16.296875 0-29.554687 13.257812-29.554687 29.554687 0 16.292969 13.257812 29.550782 29.554687 29.550782h57.914063c2.203125 4.378906 11.566406 20.199218 24.332031 31.636718zm136.511718-27.53125c-3.015625-4.46875-19.515625-33.65625-19.515625-70.253906 0-26.648438 6.933594-51.597656 19.515625-70.257812 11.96875-17.753907 27.589844-27.53125 43.980469-27.53125 16.386719 0 32.007813 9.777343 43.980469 27.53125 12.582031 18.660156 19.511718 43.609374 19.511718 70.257812 0 26.644531-6.929687 51.59375-19.511718 70.253906-11.972656 17.753906-27.59375 27.53125-43.980469 27.53125-16.390625 0-32.011719-9.777344-43.980469-27.53125zm83.351563 27.53125c6.199219-5.148437 11.929687-11.558594 17.046875-19.144531 14.234375-21.113281 22.074218-49.042969 22.074218-78.644531 0-29.601563-7.839843-57.527344-22.074218-78.640625-5.117188-7.585938-10.847656-14-17.046875-19.144531h95.777343c-6.195312 5.144531-11.929687 11.558593-17.042968 19.144531-14.234375 21.113281-22.074219 49.039062-22.074219 78.640625 0 29.601562 7.839844 57.53125 22.074219 78.644531 5.113281 7.585937 10.847656 13.996094 17.042968 19.144531zm179.132812-27.53125c-11.972656 17.753906-27.589843 27.53125-43.980469 27.53125-16.394531 0-32.011718-9.777344-43.980468-27.53125-12.582032-18.660156-19.511719-43.609375-19.511719-70.253906 0-26.648438 6.929687-51.597656 19.511719-70.257812 11.96875-17.753907 27.589844-27.53125 43.980468-27.53125 16.390626 0 32.007813 9.777343 43.980469 27.53125 12.582031 18.660156 19.511719 43.613281 19.511719 70.257812 0 26.640625-6.929688 51.59375-19.511719 70.253906zm0 0"/><path d="m451.277344 274.292969c-3.785156 1.675781-5.5 6.105469-3.820313 9.894531 3.566407 8.058594 5.53125 18.367188 5.53125 29.03125 0 24.53125-10.285156 42.863281-19.480469 42.863281-9.199218 0-19.484374-18.332031-19.484374-42.863281 0-24.535156 10.285156-42.867188 19.484374-42.867188 4.140626 0 7.5-3.355468 7.5-7.5 0-4.140624-3.359374-7.5-7.5-7.5-10.105468 0-19.230468 6.644532-25.691406 18.710938-5.667968 10.582031-8.792968 24.488281-8.792968 39.15625 0 14.664062 3.125 28.570312 8.792968 39.152344 6.464844 12.066406 15.585938 18.710937 25.691406 18.710937 10.101563 0 19.226563-6.644531 25.6875-18.710937 5.667969-10.582032 8.792969-24.488282 8.792969-39.152344 0-12.894531-2.359375-25.03125-6.816406-35.105469-1.675781-3.785156-6.105469-5.496093-9.894531-3.820312zm0 0"/><path d="m284.671875 274.0625c-6.460937-12.066406-15.585937-18.710938-25.6875-18.710938s-19.226563 6.644532-25.691406 18.710938c-5.667969 10.582031-8.789063 24.488281-8.789063 39.15625 0 14.664062 3.121094 28.570312 8.789063 39.152344 6.464843 12.066406 15.589843 18.710937 25.691406 18.710937s19.226563-6.644531 25.6875-18.710937c5.671875-10.582032 8.792969-24.488282 8.792969-39.152344 0-14.667969-3.121094-28.574219-8.792969-39.15625zm-25.6875 82.019531c-9.199219 0-19.480469-18.332031-19.480469-42.863281 0-24.535156 10.28125-42.867188 19.480469-42.867188 9.195313 0 19.480469 18.332032 19.480469 42.867188 0 24.53125-10.285156 42.863281-19.480469 42.863281zm0 0"/><path d="m340.160156 54.921875c-10.101562 0-19.226562 6.644531-25.6875 18.710937-5.667968 10.582032-8.792968 24.484376-8.792968 39.152344 0 14.667969 3.125 28.574219 8.792968 39.15625 6.464844 12.066406 15.585938 18.710938 25.6875 18.710938 10.105469 0 19.230469-6.644532 25.691406-18.710938 5.667969-10.582031 8.792969-24.488281 8.792969-39.15625 0-14.667968-3.125-28.570312-8.792969-39.152344-6.460937-12.066406-15.585937-18.710937-25.691406-18.710937zm0 100.730469c-9.195312 0-19.480468-18.332032-19.480468-42.867188 0-24.53125 10.285156-42.863281 19.480468-42.863281 9.199219 0 19.484375 18.332031 19.484375 42.863281 0 24.535156-10.285156 42.867188-19.484375 42.867188zm0 0"/><path d="m209.949219 132.683594h-31.820313c-16.296875 0-29.554687 13.257812-29.554687 29.550781 0 16.296875 13.257812 29.554687 29.554687 29.554687h31.820313c16.296875 0 29.554687-13.257812 29.554687-29.554687 0-16.292969-13.257812-29.550781-29.554687-29.550781zm0 44.105468h-31.820313c-8.027344 0-14.554687-6.527343-14.554687-14.554687 0-8.019531 6.527343-14.550781 14.554687-14.550781h31.820313c8.023437 0 14.554687 6.527344 14.554687 14.550781 0 8.027344-6.53125 14.554687-14.554687 14.554687zm0 0"/></svg>