<svg height="512pt" viewBox="-51 0 512 512" width="512pt" xmlns="http://www.w3.org/2000/svg"><path d="m376.109375 76.621094h-134.871094v-40.644532c0-19.839843-16.136719-35.976562-35.972656-35.976562s-35.976563 16.136719-35.976563 35.976562v40.644532h-134.867187c-18.980469 0-34.421875 15.441406-34.421875 34.421875s15.441406 34.421875 34.421875 34.421875h49.019531v75.332031c0 4.140625 3.355469 7.5 7.5 7.5 4.140625 0 7.5-3.359375 7.5-7.5v-129.175781h99.324219v90.738281c-15.234375-6.566406-33.078125-3.339844-45.125 8.707031-15.984375 15.984375-15.984375 41.992188 0 57.972656l30.597656 30.597657c4.074219 4.074219 9.074219 6.882812 14.527344 8.230469v87.457031c-3.972656-.914063-7.800781-2.558594-11.265625-4.945313l-62.136719-42.816406c-16.234375-11.183594-25.921875-29.632812-25.921875-49.34375v-24.535156c0-4.140625-3.359375-7.5-7.5-7.5-4.144531 0-7.5 3.359375-7.5 7.5v24.535156c0 24.648438 12.117188 47.710938 32.410156 61.695312l53.4375 36.824219v99.289063c0 19.835937 16.140626 35.972656 35.976563 35.972656s35.972656-16.136719 35.972656-35.972656v-99.289063l53.441407-36.824219c20.292968-13.984374 32.410156-37.050781 32.410156-61.695312v-186.597656h49.019531c10.707031 0 19.421875 8.710937 19.421875 19.421875 0 10.707031-8.710938 19.421875-19.421875 19.421875h-25.59375c-4.140625 0-7.5 3.355468-7.5 7.5 0 4.140625 3.359375 7.5 7.5 7.5h25.59375c18.980469 0 34.421875-15.441406 34.421875-34.421875s-15.441406-34.421875-34.421875-34.421875zm-292.667969 53.84375h-49.019531c-10.707031 0-19.421875-8.714844-19.421875-19.421875 0-10.710938 8.710938-19.421875 19.421875-19.421875h49.019531zm100.847656-94.488282c0-11.566406 9.410157-20.976562 20.976563-20.976562 11.5625 0 20.972656 9.410156 20.972656 20.976562v40.644532h-41.949219zm-21.042968 202.457032c-10.132813-10.132813-10.132813-26.625 0-36.757813 5.039062-5.039062 11.675781-7.648437 18.378906-7.648437 4.671875 0 9.378906 1.269531 13.601562 3.863281 6.1875 3.804687 13.957032 3.78125 20.28125-.066406 10.296876-6.261719 23.429688-4.652344 31.933594 3.914062 10.066406 10.136719 9.921875 26.710938-.320312 36.953125l-30.339844 30.339844c-3.0625 3.0625-7.136719 4.75-11.46875 4.75s-8.402344-1.6875-11.46875-4.75zm42.019531 258.566406c-11.566406 0-20.976563-9.410156-20.976563-20.972656v-89.636719c6.597657 3.179687 13.785157 4.773437 20.976563 4.773437 7.1875 0 14.378906-1.59375 20.972656-4.773437v89.636719c0 11.5625-9.410156 20.972656-20.972656 20.972656zm106.824219-218.78125c0 19.710938-9.691406 38.160156-25.921875 49.34375l-62.140625 42.816406c-3.460938 2.386719-7.292969 4.03125-11.261719 4.945313v-87.4375c5.488281-1.335938 10.523437-4.152344 14.621094-8.25l30.339843-30.335938c16.070313-16.070312 16.230469-42.148437.359376-58.132812-12.0625-12.144531-30.015626-15.40625-45.320313-8.769531v-90.777344h99.324219zm0 0"/></svg>