<svg height="511pt" viewBox="-114 0 511 511.998" width="511pt" xmlns="http://www.w3.org/2000/svg"><path d="m141.683594 236.800781c-19.488282 0-35.34375 19.851563-35.34375 44.253907 0 24.402343 15.855468 44.253906 35.34375 44.253906 19.488281 0 35.34375-19.851563 35.34375-44.253906 0-24.402344-15.855469-44.253907-35.34375-44.253907zm0 73.507813c-11.027344 0-20.34375-13.398438-20.34375-29.253906 0-15.859376 9.316406-29.253907 20.34375-29.253907s20.34375 13.394531 20.34375 29.253907c0 15.855468-9.316406 29.253906-20.34375 29.253906zm0 0"/><path d="m254.179688 230.75 1.191406-9.960938c16.042968-5.996093 27.496094-21.476562 27.496094-39.585937 0-23.296875-18.953126-42.25-42.25-42.25h-58.359376v-68.3125c0-17.628906-14.34375-31.96875-31.972656-31.96875s-31.972656 14.339844-31.972656 31.96875v22.167969c0 6.144531-5 11.144531-11.144531 11.144531s-11.144531-5-11.144531-11.144531v-60.835938c0-17.628906-14.339844-31.972656-31.96875-31.972656-17.632813 0-31.972657 14.34375-31.972657 31.972656v84.367188c0 4.144531 3.355469 7.5 7.5 7.5 4.140625 0 7.5-3.355469 7.5-7.5v-84.367188c0-9.359375 7.613281-16.972656 16.972657-16.972656 9.355468 0 16.96875 7.613281 16.96875 16.972656v60.835938c0 14.417968 11.730468 26.144531 26.148437 26.144531 14.414063 0 26.144531-11.726563 26.144531-26.144531v-22.167969c0-9.355469 7.613282-16.96875 16.96875-16.96875 9.359375 0 16.972656 7.609375 16.972656 16.96875v68.3125h-124.507812c-23.296875 0-42.25 18.953125-42.25 42.25 0 18.109375 11.453125 33.589844 27.496094 39.585937l1.195312 9.960938c-17.46875 4.945312-28.308594 26.058594-24.457031 48.835938 1.90625 11.28125 11.398437 36.820312 42.226563 37.742187.015624 0 .03125-.007813.046874-.011719 6.855469 12.761719 16.191407 23.929688 27.332032 32.90625 0 0 27.578125 22.175782 27.578125 59.789063 0 10.800781-.71875 23.292969-2.132813 37.195312h-11.496094c-17.863281 0-32.394531 14.53125-32.394531 32.394531 0 17.863282 14.53125 32.394532 32.394531 32.394532h106.792969c17.863281 0 32.394531-14.53125 32.394531-32.394532 0-17.863281-14.53125-32.394531-32.394531-32.394531h-11.496093c-1.414063-13.902343-2.132813-26.394531-2.132813-37.195312 0-37.613281 27.558594-59.777344 27.558594-59.777344 11.148437-8.976563 20.492187-20.148437 27.347656-32.917969.019531.003906.035156.007813.050781.011719 30.125.476563 40.316406-26.464844 42.226563-37.746094 3.851562-22.769531-6.992188-43.886719-24.457031-48.832031zm-238.683594-49.546875c0-15.023437 12.226562-27.25 27.25-27.25h197.871094c15.027343 0 27.25 12.226563 27.25 27.25 0 15.027344-12.222657 27.25-27.25 27.25h-197.871094c-15.023438 0-27.25-12.222656-27.25-27.25zm4.027344 95.882813c-2.332032-13.789063 2.800781-26.890626 11.5-31.054688l4 33.328125c.96875 8.085937 2.832031 15.871094 5.46875 23.273437-14.765626-3.410156-19.605469-17.472656-20.96875-25.546874zm146.929687 132.925781c0 13.066406.988281 28.390625 2.941406 45.546875 0 0 .152344 6.648437 7.453125 6.648437h18.230469c9.59375 0 17.398437 7.804688 17.398437 17.398438 0 9.589843-7.804687 17.394531-17.398437 17.394531h-106.789063c-9.59375 0-17.398437-7.804688-17.398437-17.394531 0-9.59375 7.804687-17.398438 17.398437-17.398438h56.972657c4.140625 0 7.5-3.355469 7.5-7.5 0-4.140625-3.359375-7.5-7.5-7.5h-30.40625c1.363281-13.800781 2.058593-26.292969 2.058593-37.195312 0-16.726563-4.394531-30.734375-9.996093-41.804688 10.9375 3.746094 22.640625 5.777344 34.765625 5.777344s23.828125-2.03125 34.765625-5.777344c-5.601563 11.070313-9.996094 25.078125-9.996094 41.804688zm-24.769531-51.027344c-46.746094 0-86.199219-35-91.769532-81.414063l-6.492187-54.117187h196.523437l-6.496093 54.117187c-5.566407 46.414063-45.019531 81.414063-91.765625 81.414063zm122.164062-81.898437c-1.367187 8.074218-6.460937 24.367187-20.96875 25.542968 2.632813-7.398437 4.496094-15.183594 5.464844-23.269531l4-33.332031c8.703125 4.167968 13.832031 17.269531 11.503906 31.058594zm0 0"/><path d="m230.699219 100.308594c17.628906 0 31.972656-14.34375 31.972656-31.972656v-20.382813c0-17.628906-14.34375-31.972656-31.972656-31.972656-17.628907 0-31.96875 14.34375-31.96875 31.972656v20.382813c0 17.628906 14.339843 31.972656 31.96875 31.972656zm-16.96875-52.355469c0-9.355469 7.613281-16.972656 16.96875-16.972656 9.359375 0 16.972656 7.613281 16.972656 16.972656v20.382813c0 9.359374-7.613281 16.972656-16.972656 16.972656-9.355469 0-16.96875-7.613282-16.96875-16.972656zm0 0"/></svg>