<svg height="511pt" viewBox="0 -17 511.9991 511" width="511pt" xmlns="http://www.w3.org/2000/svg"><path d="m199.851562 364.394531c-2.929687-2.929687-2.929687-7.675781 0-10.605469l8.804688-8.804687c2.925781-2.929687 7.675781-2.929687 10.605469 0 2.929687 2.929687 2.929687 7.679687 0 10.605469l-8.804688 8.804687c-2.929687 2.929688-7.675781 2.929688-10.605469 0zm0 0"/><path d="m112.445312 276.988281c-2.929687-2.929687-2.929687-7.675781 0-10.605469l8.804688-8.804687c2.929688-2.929687 7.675781-2.929687 10.605469 0 2.929687 2.929687 2.929687 7.679687 0 10.605469l-8.804688 8.804687c-2.929687 2.929688-7.675781 2.929688-10.605469 0zm0 0"/><path d="m170.371094 313.710938c-2.933594.558593-4.875-.964844-5.578125-1.667969s-2.269531-2.652344-1.667969-5.574219c.839844-4.058594-1.765625-8.027344-5.820312-8.867188-4.058594-.839843-8.027344 1.769532-8.867188 5.824219-1.445312 6.992188.703125 14.175781 5.75 19.226563 5.046875 5.046875 12.234375 7.195312 19.226562 5.746094 4.054688-.839844 6.660157-4.808594 5.820313-8.863282-.304687-1.484375-2.75-6.980468-8.863281-5.824218zm0 0"/><path d="m48.542969 428.296875c-39.441407-39.441406-56.328125-95.742187-45.167969-150.605469.824219-4.058594 4.785156-6.679687 8.84375-5.855468 4.058594.824218 6.679688 4.785156 5.855469 8.84375-10.15625 49.917968 5.203125 101.136718 41.074219 137.011718 27.632812 27.632813 64.421874 43.289063 103.589843 44.085938 39 .796875 76.238281-13.1875 104.878907-39.375l221.914062-221.6875c9.964844-9.964844 9.964844-26.183594 0-36.152344-9.96875-9.964844-26.1875-9.964844-36.15625 0l-74.40625 74.179688c-14.425781 14.425781-37.914062 14.425781-52.347656-.007813-14.4375-14.4375-14.4375-37.925781 0-52.359375l6.109375-6.113281c9.96875-9.96875 9.96875-26.1875 0-36.15625-9.964844-9.964844-26.183594-9.964844-36.152344 0l-13.511719 13.515625c-14.4375 14.433594-37.925781 14.433594-52.359375 0-14.4375-14.4375-14.4375-37.925782 0-52.359375l46.136719-46.136719c9.964844-9.96875 9.964844-26.1875 0-36.15625-9.96875-9.96875-26.1875-9.96875-36.15625 0-1.800781 1.800781-179.917969 179.695312-181.539062 181.3125-14.03125 14.03125-24.980469 30.367188-32.550782 48.558594-1.589844 3.824218-5.980468 5.632812-9.804687 4.042968-3.824219-1.589843-5.632813-5.980468-4.042969-9.804687 8.324219-20.011719 20.367188-37.976563 35.789062-53.402344 1.628907-1.625 179.75-179.519531 181.546876-181.316406 15.8125-15.8125 41.546874-15.8125 57.363281.003906 15.816406 15.8125 15.816406 41.550781 0 57.367188l-46.136719 46.136719c-8.585938 8.585937-8.585938 22.558593 0 31.144531 8.585938 8.585937 22.5625 8.585937 31.148438 0l13.511718-13.511719c15.816406-15.816406 41.550782-15.816406 57.367188 0s15.816406 41.550781 0 57.367188l-6.113282 6.113281c-8.585937 8.585937-8.585937 22.558593 0 31.144531 8.585938 8.585938 22.558594 8.585938 31.144532 0l74.40625-74.175781c15.808594-15.808594 41.542968-15.808594 57.359375.007812 15.816406 15.816407 15.816406 41.550781 0 57.367188l-222.035157 221.804687c-.078124.078125-.15625.152344-.234374.222656-31.511719 28.878907-72.507813 44.296876-115.433594 43.425782-43.058594-.878906-83.507813-18.09375-113.890625-48.480469zm0 0"/><path d="m77.046875 399.789062c-48.964844-48.964843-48.964844-128.640624 0-177.605468 48.96875-48.96875 128.644531-48.96875 177.609375 0 2.929688 2.925781 2.929688 7.675781 0 10.605468-2.929688 2.929688-7.675781 2.929688-10.605469 0-43.117187-43.117187-113.277343-43.117187-156.394531 0-43.121094 43.117188-43.121094 113.277344 0 156.394532 43.117188 43.121094 113.277344 43.121094 156.394531 0 35.578125-35.578125 42.683594-90.703125 17.28125-134.054688-2.097656-3.574218-.894531-8.171875 2.675781-10.265625 3.574219-2.09375 8.167969-.894531 10.265626 2.679688 28.851562 49.238281 20.785156 111.84375-19.617188 152.246093-48.964844 48.96875-128.640625 48.96875-177.609375 0zm0 0"/><path d="m358.316406 118.519531c-15.808594-15.808593-15.808594-41.535156 0-57.347656l16.316406-16.3125c15.8125-15.8125 41.539063-15.8125 57.347657-.003906 15.8125 15.8125 15.8125 41.539062 0 57.351562l-16.3125 16.3125c-15.8125 15.8125-41.539063 15.8125-57.351563 0zm63.058594-63.054687c-9.960938-9.964844-26.171875-9.964844-36.136719 0l-16.3125 16.3125c-9.964843 9.964844-9.964843 26.175781 0 36.136718 9.960938 9.964844 26.171875 9.964844 36.136719 0l16.3125-16.3125c9.964844-9.964843 9.964844-26.175781 0-36.136718zm0 0"/></svg>