<svg height="512pt" viewBox="-25 0 512 512.001" width="512pt" xmlns="http://www.w3.org/2000/svg"><path d="m390.894531 201.222656c-4.117187-.507812-7.847656 2.433594-8.34375 6.542969-8.898437 73.542969-33.335937 131.078125-72.640625 171.011719-31.664062 32.171875-71.46875 54.664062-109.203125 61.710937-50.503906 9.429688-97.625-6.972656-140.0625-48.742187-4.667969-4.589844-8.988281-9.429688-12.96875-14.480469 36.382813-88.28125 111.359375-124.671875 177.625-156.832031 16.164063-7.84375 31.429688-15.253906 45.644531-23.15625 28.773438-16 53.53125-40.484375 73.589844-72.773438 14.027344-22.585937 23.332032-45.179687 29.207032-62.503906 5.410156 5.125 8.835937 12.054688 9.566406 19.832031 2.980468 31.71875 3.710937 62.621094 2.167968 91.851563-.21875 4.136718 2.375 7.613281 7.496094 7.894531 3.953125.21875 7.269532-3.101563 7.480469-7.101563 1.582031-29.960937.835937-61.601562-2.210937-94.046874-1.503907-16-10.726563-29.589844-24.847657-36.878907-.273437-.152343-.554687-.292969-.851562-.414062-.542969-.265625-1.074219-.542969-1.628907-.789063-15.558593-6.9375-33.027343-5.023437-46.71875 5.128906-30.027343 22.261719-73.496093 48.589844-122.683593 60.011719 5.929687-5.078125 9.34375-12.410156 9.34375-20.511719 0-10.070312-5.277344-18.972656-14.117188-23.808593l-13.308593-7.277344c-12.035157-6.582031-21.878907-16.425781-28.464844-28.464844l-7.277344-13.308593c-4.832031-8.839844-13.734375-14.117188-23.808594-14.117188-10.074218 0-18.972656 5.277344-23.808594 14.117188l-7.277343 13.304687c-6.582031 12.039063-16.425781 21.882813-28.464844 28.46875l-13.308594 7.277344c-8.839843 4.835937-14.117187 13.734375-14.117187 23.808593 0 10.074219 5.277344 18.976563 14.117187 23.808594l13.308594 7.277344c6.667969 3.648438 12.65625 8.300781 17.796875 13.765625-19.476562 11.167969-36.726562 27.195313-50.269531 46.796875-14.898438 21.554688-25.070313 46.992188-29.417969 73.5625-7.507812 45.875 2.511719 90.574219 27.683594 126.601562-6.421875 11.140626-21.523438 41.554688-19.832032 78.695313.183594 4.023437 3.011719 7.238281 7.832032 7.152344 4.140625-.074219 7.339844-3.695313 7.152344-7.835938-1.28125-28.101562 8.558593-52.429687 14.917968-65.019531 3.136719 3.667969 12.4375 15.746094 33.9375 31.355469.109375 12.367187 1.636719 23.679687 4.582032 33.65625 2.863281 9.703125 1.230468 20.832031-4.265626 29.042969-3.011718 4.503906-8.480468 10.066406-17.425781 11.007812-14.828125 1.558594-22.671875-8.898438-26.027343-15.265625-1.929688-3.664063-6.464844-5.070313-10.128907-3.140625-3.664062 1.929688-5.070312 6.464844-3.140625 10.128906 7.941406 15.078125 21.007813 23.433594 36.316406 23.433594 13.480469 0 26.09375-7.6875 32.875-17.824219 8.023438-11.992187 10.335938-27.554687 6.183594-41.628906-1.695312-5.753906-2.847656-12.089844-3.460937-18.910156 12.429687 7.585937 25.214843 13.449219 38.289062 17.496093 14.867188 4.605469 30.136719 6.90625 45.648438 6.90625 9.875 0 19.855469-.933593 29.886719-2.804687 40.679687-7.597656 83.375-31.628906 117.140624-65.9375 41.679688-42.351563 67.535157-102.820313 76.839844-179.730469.496094-4.109375-2.433594-7.847656-6.546875-8.34375zm-319.371093-96.320312-13.308594-7.277344c-3.953125-2.160156-6.3125-6.144531-6.3125-10.648438 0-4.503906 2.359375-8.484374 6.3125-10.648437l13.308594-7.277344c14.5625-7.960937 26.46875-19.867187 34.429687-34.429687l7.277344-13.308594c2.164062-3.953125 6.144531-6.3125 10.648437-6.3125 4.507813 0 8.488282 2.359375 10.648438 6.3125l7.28125 13.308594c7.960937 14.558594 19.867187 26.464844 34.429687 34.429687l13.304688 7.277344c3.953125 2.164063 6.316406 6.144531 6.316406 10.648437 0 4.503907-2.363281 8.484376-6.316406 10.648438l-13.304688 7.277344c-14.5625 7.960937-26.46875 19.867187-34.429687 34.429687l-7.28125 13.308594c-2.160156 3.953125-6.140625 6.3125-10.648438 6.3125-4.503906 0-8.484375-2.359375-10.648437-6.3125l-7.277344-13.308594c-7.960937-14.558593-19.867187-26.464843-34.429687-34.429687zm-54.285157 149.707031c3.992188-24.390625 13.3125-47.71875 26.957031-67.460937 12.664063-18.324219 28.851563-33.15625 47.082032-43.242188.523437.863281 8.792968 15.929688 8.792968 15.929688 4.835938 8.839843 13.734376 14.117187 23.8125 14.117187 10.070313 0 18.972657-5.277344 23.808594-14.117187l7.277344-13.304688c3.929688-7.1875 9.027344-13.582031 15.054688-18.976562 65.949218-5.25 124.996093-39.773438 163.105468-68.03125 8.03125-5.949219 17.96875-7.71875 27.328125-5.050782-26.222656 80.421875-71.640625 115.703125-96.800781 129.691406-13.851562 7.703126-28.933594 15.019532-44.902344 22.769532-33.296875 16.160156-71.039062 34.476562-104.332031 60.316406-34.546875 26.8125-59.78125 58.183594-76.824219 95.574219-19.351562-31.484375-26.714844-69.371094-20.359375-108.214844zm0 0"/><path d="m451.21875 418.507812-9.605469-5.25c-8.339843-4.5625-15.15625-11.382812-19.714843-19.71875l-5.253907-9.605468c-3.804687-6.953125-11.089843-11.273438-19.015625-11.273438-7.929687 0-15.210937 4.320313-19.015625 11.273438l-5.253906 9.605468c-4.5625 8.335938-11.378906 15.15625-19.71875 19.71875l-9.605469 5.25c-6.953125 3.804688-11.273437 11.09375-11.273437 19.019532 0 7.925781 4.320312 15.210937 11.273437 19.015625l9.605469 5.253906c8.339844 4.558594 15.15625 11.378906 19.71875 19.714844l5.25 9.605469c3.804687 6.953124 11.089844 11.273437 19.015625 11.273437 7.929688 0 15.214844-4.320313 19.019531-11.273437l5.25-9.605469c4.5625-8.335938 11.378907-15.15625 19.71875-19.714844l9.605469-5.253906c6.953125-3.804688 11.273438-11.089844 11.273438-19.015625 0-7.925782-4.320313-15.214844-11.273438-19.019532zm-7.195312 24.871094-9.605469 5.253906c-10.863281 5.941407-19.742188 14.820313-25.679688 25.679688l-5.253906 9.605469c-1.714844 3.132812-4.667969 3.472656-5.855469 3.472656-1.191406 0-4.140625-.339844-5.855468-3.472656l-5.253907-9.605469c-5.9375-10.855469-14.816406-19.738281-25.679687-25.679688l-9.605469-5.253906c-3.132813-1.710937-3.46875-4.664062-3.46875-5.851562 0-1.191406.335937-4.144532 3.46875-5.855469l9.605469-5.253906c10.863281-5.941407 19.742187-14.820313 25.679687-25.679688l5.253907-9.605469c1.714843-3.132812 4.667968-3.472656 5.855468-3.472656s4.140625.339844 5.855469 3.472656l5.253906 9.605469c5.9375 10.859375 14.816407 19.738281 25.679688 25.679688l9.605469 5.253906c3.132812 1.710937 3.472656 4.664063 3.472656 5.855469-.003906 1.1875-.339844 4.140625-3.472656 5.851562zm0 0"/></svg>