<svg height="512pt" viewBox="0 -157 512 512" width="512pt" xmlns="http://www.w3.org/2000/svg"><path d="m435.230469 91.503906h-14.734375v-14.734375c0-4.140625-3.359375-7.5-7.5-7.5s-7.5 3.359375-7.5 7.5v14.734375h-14.734375c-4.140625 0-7.5 3.355469-7.5 7.5 0 4.140625 3.359375 7.5 7.5 7.5h14.734375v14.730469c0 4.144531 3.359375 7.5 7.5 7.5s7.5-3.355469 7.5-7.5v-14.730469h14.734375c4.140625 0 7.5-3.359375 7.5-7.5 0-4.144531-3.359375-7.5-7.5-7.5zm0 0"/><path d="m412.996094 198.007812h-34.65625c-4.144532 0-7.5-3.359374-7.5-7.5 0-4.144531 3.355468-7.5 7.5-7.5h34.65625c46.320312 0 84.003906-37.6875 84.003906-84.003906 0-46.320312-37.683594-84.003906-84.003906-84.003906h-313.992188c-46.320312 0-84.003906 37.683594-84.003906 84.003906 0 46.316406 37.683594 84.003906 84.003906 84.003906h249.488282c4.140624 0 7.5 3.355469 7.5 7.5 0 4.140626-3.359376 7.5-7.5 7.5h-249.488282c-54.59375 0-99.003906-44.414062-99.003906-99.003906 0-54.59375 44.410156-99.003906 99.003906-99.003906h313.992188c54.59375 0 99.003906 44.410156 99.003906 99.003906 0 54.589844-44.410156 99.003906-99.003906 99.003906zm0 0"/><path d="m412.996094 162.84375c-35.199219 0-63.839844-28.640625-63.839844-63.839844 0-35.203125 28.640625-63.839844 63.839844-63.839844 35.203125 0 63.839844 28.636719 63.839844 63.839844 0 35.199219-28.636719 63.839844-63.839844 63.839844zm0-112.679688c-26.929688 0-48.839844 21.910157-48.839844 48.839844 0 26.929688 21.910156 48.839844 48.839844 48.839844 26.929687 0 48.839844-21.910156 48.839844-48.839844 0-26.929687-21.910157-48.839844-48.839844-48.839844zm0 0"/><path d="m96.378906 166.679688c-12.886718 0-16.914062-9.28125-16.757812-16.992188l.480468-23.558594h-10.371093c-5.742188 0-11.210938-2.472656-15.003907-6.785156-3.792968-4.3125-5.542968-10.054688-4.808593-15.75l6.980469-54.0625c1.339843-10.371094 10.234374-18.195312 20.695312-18.195312h35.042969c5.863281 0 11.261719 2.679687 14.808593 7.347656 3.546876 4.671875 4.679688 10.589844 3.109376 16.238281l-4.902344 17.605469h6.273437c5.898438 0 11.179688 3.050781 14.128907 8.15625 2.949218 5.105468 2.949218 11.207031 0 16.3125l-35.410157 61.34375c-3.054687 5.292968-8.457031 8.339844-14.265625 8.339844zm-18.785156-120.34375c-2.941406 0-5.441406 2.199218-5.816406 5.113281l-6.980469 54.066406c-.25 1.941406.640625 3.289063 1.195313 3.921875.558593.632812 1.78125 1.691406 3.742187 1.691406h18.019531c2.015625 0 3.945313.8125 5.355469 2.25 1.410156 1.441406 2.183594 3.386719 2.144531 5.402344l.558594 32.8125 37.515625-63.855469-17.542969-.210937c-2.34375 0-4.554687-1.097656-5.972656-2.964844s-1.878906-4.289062-1.253906-6.546875l7.546875-27.117187c.417969-1.496094-.195313-2.613282-.601563-3.140626-.402344-.53125-1.3125-1.421874-2.863281-1.421874zm0 0"/><path d="m186.28125 158.296875c-15.503906 0-28.121094-12.613281-28.121094-28.121094 0-4.144531 3.359375-7.5 7.5-7.5 4.144532 0 7.5 3.355469 7.5 7.5 0 7.234375 5.886719 13.121094 13.121094 13.121094s13.121094-5.886719 13.121094-13.121094v-66.890625c0-7.234375-5.886719-13.121094-13.121094-13.121094s-13.121094 5.886719-13.121094 13.121094v35.714844c0 4.144531-3.355468 7.5-7.5 7.5-4.140625 0-7.5-3.355469-7.5-7.5v-35.714844c0-15.507812 12.617188-28.121094 28.121094-28.121094 15.507812 0 28.121094 12.613282 28.121094 28.121094v66.890625c0 15.507813-12.613282 28.121094-28.121094 28.121094zm0 0"/><path d="m248.707031 158.296875c-15.507812 0-28.121093-12.613281-28.121093-28.121094v-66.890625c0-15.507812 12.613281-28.121094 28.121093-28.121094 15.507813 0 28.121094 12.613282 28.121094 28.121094v66.890625c0 15.507813-12.613281 28.121094-28.121094 28.121094zm0-108.132813c-7.234375 0-13.121093 5.886719-13.121093 13.121094v66.890625c0 7.234375 5.886718 13.121094 13.121093 13.121094s13.121094-5.886719 13.121094-13.121094v-66.890625c0-7.234375-5.886719-13.121094-13.121094-13.121094zm0 0"/><path d="m311.128906 158.296875c-15.503906 0-28.121094-12.613281-28.121094-28.121094v-66.890625c0-15.507812 12.617188-28.121094 28.121094-28.121094 15.507813 0 28.125 12.613282 28.125 28.121094v66.890625c0 15.507813-12.617187 28.121094-28.125 28.121094zm0-108.132813c-7.234375 0-13.121094 5.886719-13.121094 13.121094v66.890625c0 7.234375 5.886719 13.121094 13.121094 13.121094s13.125-5.886719 13.125-13.121094v-66.890625c0-7.234375-5.890625-13.121094-13.125-13.121094zm0 0"/></svg>