<svg height="512pt" viewBox="0 -65 512.00026 512" width="512pt" xmlns="http://www.w3.org/2000/svg"><path d="m503 185.261719c6.558594-9.375 9.636719-20.410157 8.890625-31.90625-1.625-25.089844-22.589844-45.554688-47.730469-46.589844-22.320312-.933594-42.742187 13.261719-49.617187 34.492187-.941407 2.898438-3.296875 4.988282-6.132813 5.628907-7.109375-28.730469-21.582031-53.707031-43.296875-74.585938-2.984375-2.871093-7.734375-2.777343-10.605469.207031-2.871093 2.988282-2.777343 7.734376.207032 10.605469 29.089844 27.964844 43.835937 64.203125 43.835937 107.710938 0 43.546875-14.773437 79.8125-43.914062 107.789062-39.632813 38.050781-99.355469 54.496094-142.480469 61.589844-12.070312 1.988281-23.546875 3.367187-33.957031 4.328125 14.175781-9.714844 26.898437-23.1875 37.835937-40.101562 23.148438-35.796876 35.898438-83.246094 35.898438-133.605469 0-50.355469-12.75-97.804688-35.898438-133.605469-10.90625-16.863281-23.589844-30.308594-37.71875-40.019531 43.542969 4.070312 105.914063 15.53125 153.019532 47.175781 1.28125.863281 7.066406 2.859375 10.40625-2.042969 2.332031-3.421875 1.394531-8.097656-2.042969-10.40625-44.058594-29.601562-99.945313-42.097656-139.066407-47.367187-41.894531-5.640625-73.203124-4.4843752-74.925781-4.414063-17.382812.054688-34.1875 5.304688-49.957031 15.613281-14.988281 9.804688-28.394531 23.753907-39.847656 41.464844-23.152344 35.792969-35.902344 83.242188-35.902344 133.601563 0 50.355469 12.75 97.804687 35.898438 133.605469 11.453124 17.707031 24.859374 31.65625 39.851562 41.460937 15.765625 10.3125 32.574219 15.5625 49.957031 15.613281 28.132813 0 53.496094-.703125 88.554688-6.445312 82.09375-13.449219 127.277343-43.09375 150.726562-65.59375 21.785157-20.902344 36.296875-45.921875 43.421875-74.703125 2.832032.640625 5.191406 2.730469 6.132813 5.628906 6.664062 20.578125 23.09375 34.492187 49.613281 34.492187 25.160156 0 46.105469-21.5 47.734375-46.589843.746094-11.5-2.332031-22.53125-8.894531-31.910157-2.324219-3.324218-2.324219-7.792968.003906-11.121093zm-454.503906 131.023437c-21.601563-33.402344-33.496094-77.957031-33.496094-125.460937 0-47.503907 11.894531-92.058594 33.496094-125.460938 20.945312-32.390625 48.460937-50.226562 77.472656-50.226562s56.523438 17.835937 77.46875 50.226562c21.601562 33.402344 33.496094 77.957031 33.496094 125.460938 0 47.503906-11.894532 92.058593-33.496094 125.460937-20.945312 32.386719-48.457031 50.226563-77.46875 50.226563s-56.527344-17.839844-77.472656-50.226563zm442.214844-111.296875c4.585937 6.550781 6.734374 14.277344 6.210937 22.335938-1.136719 17.542969-15.800781 31.847656-33.378906 32.570312-15.621094.65625-29.921875-9.277343-34.730469-24.128906-2.640625-8.148437-9.363281-14.035156-17.453125-15.722656 1.453125-9.382813 2.191406-19.121094 2.191406-29.21875 0-10.097657-.738281-19.835938-2.191406-29.21875 8.089844-1.6875 14.8125-7.574219 17.449219-15.722657 4.8125-14.851562 19.085937-24.757812 34.734375-24.128906 17.582031.722656 32.242187 15.03125 33.378906 32.570313.519531 8.058593-1.625 15.78125-6.210937 22.335937-5.929688 8.472656-5.929688 19.855469 0 28.328125zm0 0"/><path d="m190.84375 308.140625c19.757812-30.554687 31.089844-73.3125 31.089844-117.316406 0-44-11.332032-86.761719-31.089844-117.3125-10.476562-16.199219-32.835938-43.371094-64.875-43.371094-32.042969 0-54.402344 27.171875-64.878906 43.371094-19.757813 30.550781-31.089844 73.3125-31.089844 117.3125 0 37.453125 8.167969 74.113281 23.003906 103.230469 1.882813 3.691406 6.402344 5.160156 10.085938 3.277343 3.691406-1.878906 5.160156-6.394531 3.28125-10.085937-13.78125-27.046875-21.371094-61.292969-21.371094-96.421875 0-41.1875 10.457031-80.976563 28.6875-109.167969 8.820312-13.640625 27.339844-36.519531 52.28125-36.519531 24.9375 0 43.457031 22.878906 52.277344 36.519531 18.230468 28.191406 28.6875 67.980469 28.6875 109.167969s-10.457032 80.976562-28.6875 109.167969c-8.820313 13.640624-27.339844 36.519531-52.277344 36.519531-18.949219 0-34.175781-13.445313-43.609375-24.722657-2.660156-3.179687-7.390625-3.597656-10.566406-.941406-3.175781 2.660156-3.597657 7.390625-.9375 10.566406 16.472656 19.6875 35.53125 30.097657 55.113281 30.097657 32.039062 0 54.398438-27.175781 64.875-43.371094zm0 0"/><path d="m163.5 190.824219c0-42.148438-16.136719-73.9375-37.535156-73.9375-21.394532 0-37.53125 31.789062-37.53125 73.9375 0 42.148437 16.136718 73.9375 37.53125 73.9375 21.398437 0 37.535156-31.785157 37.535156-73.9375zm-60.066406 0c0-36.515625 13.125-58.9375 22.53125-58.9375 9.410156 0 22.535156 22.421875 22.535156 58.9375s-13.125 58.9375-22.535156 58.9375c-9.40625 0-22.53125-22.421875-22.53125-58.9375zm0 0"/></svg>