<svg height="511pt" viewBox="-10 1 511 511.99929" width="511pt" xmlns="http://www.w3.org/2000/svg"><path d="m478.378906 313.941406c-1.820312-3.71875-6.3125-5.257812-10.03125-3.433594-3.722656 1.820313-5.257812 6.316407-3.4375 10.035157 8.257813 16.84375 12.445313 34.96875 12.445313 53.875 0 67.59375-54.992188 122.582031-122.582031 122.582031-67.589844 0-122.582032-54.988281-122.582032-122.582031 0-29.46875 10.609375-57.949219 29.875-80.195313 18.109375-20.917968 42.714844-35.082031 69.667969-40.214844 1.773437 14.347657 2.378906 29.714844 1.464844 46.125-.765625 13.71875 9.757812 25.976563 23.515625 26.269532 16.421875.347656 25.511718-10.261719 26.246094-23.5.910156-16.324219.585937-32.347656-.960938-48.023438 25.046875 5.699219 47.910156 19.289063 65 38.789063 1.480469 1.691406 6.109375 3.832031 10.582031.695312 3.390625-2.378906 3.425781-7.46875.695313-10.582031-20.371094-23.246094-48.070313-39.019531-78.257813-44.628906-3.648437-23.753906-10.183593-46.628906-19.582031-68.441406-13.0625-30.308594-31.3125-57.972657-54.246094-82.222657-7.261718-7.675781-20.730468-21.21875-33.375-30.253906v-32.265625c0-9.457031-4.910156-17.882812-13.132812-22.546875-8.226563-4.664063-17.980469-4.554687-26.09375.296875l-33.914063 20.28125c-7.898437 4.722656-12.617187 13.035156-12.621093 22.238281 0 9.199219 4.710937 17.519531 12.601562 22.246094l26.03125 15.59375c1.273438 41.058594-8.050781 80.457031-27.738281 117.164063-1.957031 3.648437-.738281 8.507812 3.0625 10.152343 4.644531 2.007813 8.800781-.542969 10.15625-3.0625 19.53125-36.417969 29.472656-75.339843 29.628906-115.875 2.5.835938 9.792969 3.835938 20.113281-2.148437 5.3125-3.085938 9.113282-8.167969 10.855469-13.925782 9.183594 7.640626 18.144531 16.722657 23.527344 22.410157 21.722656 22.96875 39.003906 49.164062 51.367187 77.851562 16.636719 38.605469 23.808594 80.804688 21.324219 125.425781-.304687 5.449219-5.003906 9.636719-10.457031 9.355469-5.460938-.304687-9.660156-4.996093-9.355469-10.457031 5.734375-102.90625-44.839844-167.507812-75.496094-196.855469-2.101562-2.011719-5.179687-2.628906-7.894531-1.574219-2.714844 1.050782-4.578125 3.578126-4.773438 6.480469-3.328124 48.832031-20.5625 96.796875-49.84375 138.707031-27.640624 39.566407-56.015624 60.539063-57.421874 61.554688-8.695313 5.210938-14.179688-1.851562-14.234376-1.925781-3.214843-4.417969-2.238281-10.628907 2.203126-13.871094 1.140624-.839844 28.226562-21.039063 53.921874-58.171875 2.355469-3.40625 1.503907-8.078125-1.902343-10.433594-3.40625-2.355468-8.078125-1.507812-10.433594 1.898438-6.207031 8.96875-12.53125 16.910156-18.511719 23.777344-9.253906-2.582032-18.820312-4.128907-28.496094-4.59375-70.832031-3.394532-131.230468 51.445312-134.640624 122.277343-3.40625 70.832031 51.445312 131.234375 122.28125 134.640625 2.09375.101563 4.175781.152344 6.253906.152344 43.628906 0 83.875-22.007812 107.5-58.09375 24.058594 40.136719 67.988281 67.0625 118.089844 67.0625 75.863281 0 137.578124-61.71875 137.578124-137.582031.003907-21.210938-4.699218-41.5625-13.972656-60.476563zm-220.5625-244.542968c0 3.269531-1.746094 6.339843-4.5625 8.011718-2.945312 1.746094-6.601562 1.742188-9.539062-.019531h-.003906l-36.347657-21.773437c-3.375-2.019532-5.308593-5.4375-5.308593-9.375 0-3.933594 1.941406-7.347657 5.316406-9.367188l33.917968-20.28125c1.746094-1.042969 6.441407-2.644531 10.992188-.125 3.488281 1.929688 5.535156 5.515625 5.535156 9.5zm-35.351562 186.917968c27.585937-39.484375 45.023437-84.117187 50.910156-129.988281 20.988281 23.148437 46.242188 60.488281 56.058594 112.851563-30.460938 5.679687-58.273438 21.621093-78.707032 45.222656-5.289062 6.105468-9.988281 12.632812-14.085937 19.488281-7.46875-11.351563-16.726563-21.527344-27.34375-30.015625 4.339844-5.40625 8.757813-11.246094 13.167969-17.558594zm-98.816406 231.582032c-62.570313-3.011719-111.027344-56.367188-108.015626-118.9375 3.011719-62.574219 56.375-111.019532 118.9375-108.019532 5.914063.285156 11.777344 1.027344 17.535157 2.207032-11.699219 11.832031-20.136719 18.148437-20.265625 18.242187-11.082032 8.089844-13.53125 23.695313-5.460938 34.789063 5.21875 7.167968 19.144532 15.089843 34.308594 5.828124.207031-.128906 17.527344-12.359374 38.953125-36.648437 11.777344 9.351563 21.691406 21.042969 28.96875 34.195313-7.46875 17.175781-11.417969 35.835937-11.417969 54.867187 0 19.488281 4.082032 38.039063 11.421875 54.851563-20.871093 37.871093-61.378906 60.703124-104.964843 58.625zm0 0"/></svg>