<svg height="512pt" viewBox="-6 0 512 512.001" width="512pt" xmlns="http://www.w3.org/2000/svg"><path d="m331.550781 268.320312c-4.140625 0-7.5 3.359376-7.5 7.5v12.453126c0 4.140624 3.359375 7.5 7.5 7.5 4.144531 0 7.5-3.359376 7.5-7.5v-12.453126c0-4.140624-3.355469-7.5-7.5-7.5zm0 0"/><path d="m170.238281 268.320312c-4.144531 0-7.5 3.359376-7.5 7.5v12.453126c0 4.140624 3.355469 7.5 7.5 7.5s7.5-3.359376 7.5-7.5v-12.453126c0-4.140624-3.355469-7.5-7.5-7.5zm0 0"/><path d="m269.214844 282.351562c-10.785156 8.367188-25.851563 8.367188-36.640625 0-3.273438-2.539062-7.984375-1.945312-10.523438 1.328126-2.539062 3.273437-1.941406 7.984374 1.332031 10.523437 8.097657 6.28125 17.804688 9.425781 27.511719 9.425781s19.414063-3.144531 27.515625-9.425781c3.273438-2.539063 3.867188-7.25 1.328125-10.523437-2.539062-3.273438-7.25-3.867188-10.523437-1.328126zm0 0"/><path d="m496.578125 282.730469c-7.539063-35.621094-47.027344-139.851563-51.882813-153.699219-9.375-26.761719-22.511718-49.789062-39.046874-68.449219-2.746094-3.097656-7.488282-3.386719-10.589844-.636719-3.097656 2.746094-3.382813 7.484376-.636719 10.585938 15.234375 17.195312 27.390625 38.546875 36.117187 63.460938 4.914063 14.027343 10.335938 28.332031 16.074219 43.476562 26.4375 69.789062 56.40625 148.890625 29.777344 194.484375-10.261719 17.570313-28.269531 29.480469-54.773437 36.164063 0 0 19.199218-8.195313 17.945312-23.527344-1.152344-14.113282-16.9375-21.414063-16.9375-21.414063 4.152344-12.882812 7.03125-26.074219 8.601562-39.5 19.804688-7.085937 33.296876-25.960937 33.296876-47.320312 0-27.714844-22.699219-53.167969-50.261719-50.257813-12.675781 1.335938-14.871094 3.441406-29.335938-.675781-18.882812-5.378906-31.886719-20.441406-38.648437-44.765625-8.105469-29.15625-34.660156-73.101562-95.191406-73.101562s-87.46875 43.941406-95.574219 73.101562c-6.765625 24.328125-19.773438 39.390625-38.660157 44.769531-14.460937 4.113281-15.089843 2.019531-29.328124.671875-27.589844-2.617187-50.257813 22.542969-50.257813 50.257813 0 21.367187 13.496094 40.246093 33.308594 47.328125 1.613281 13.769531 4.578125 27.3125 8.902343 40.511718 1.289063 3.9375 5.527344 6.078126 9.460938 4.792969 3.9375-1.292969 6.082031-5.527343 4.792969-9.464843-7.640625-23.320313-10.75-47.800782-9.234375-72.757813.460937-7.59375 6.503906-9.984375 8.347656-10.535156 3.90625-1.167969 9.414062-.644531 13.152344 4.351562 16.75 22.355469 36.71875 38.066407 61.039062 48.027344 22.769532 9.324219 50.199219 13.859375 83.855469 13.859375 33.660156 0 61.089844-4.535156 83.859375-13.859375 24.320312-9.964844 44.285156-25.671875 61.035156-48.027344 3.742188-4.992187 9.25-5.523437 13.15625-4.351562 1.839844.550781 7.882813 2.941406 8.34375 10.535156 1.316406 21.636719-.839844 42.863281-6.402344 63.300781 0 0-.492187-19.410156-16.871093-24.582031-8.136719-2.570313-16.859375-.003906-22.640625 6.273437l-7.347656 7.976563c-2.050782 2.230469-5.0625 3.304687-8.066407 2.875l-10.738281-1.527344c-8.449219-1.214843-16.6875 2.421875-21.5 9.460938-4.816406 7.039062-5.210938 16.03125-1.03125 23.464843l5.320312 9.457032c1.480469 2.640625 1.574219 5.839844.238282 8.558594l-4.773438 9.742187c-3.753906 7.660156-2.851562 16.613281 2.355469 23.371094 3.210937 4.164062 7.644531 6.953125 12.53125 8.089843l-8.210937 27.953126c-.820313-.277344-24.375-18.527344-24.503907-18.628907-3.105469-2.417969-7.5625-2.019531-10.191406.917969l-20.96875 23.429688c-6 6.699218-14.597656 10.546874-23.59375 10.546874s-17.59375-3.847656-23.59375-10.546874l-20.96875-23.429688c-2.628906-2.9375-7.082031-3.335938-10.191406-.917969-.128907.101563-12.976563 10.097657-22.207031 17.386719-2.851563 2.253906-6.957032 2.175781-9.757813-.195312-25.597656-21.652344-45.371094-45.945313-58.773437-72.214844-1.882813-3.6875-6.402344-5.152344-10.089844-3.269532-3.691406 1.882813-5.15625 6.398438-3.273438 10.089844 3.101563 6.074219 6.535156 12.042969 10.261719 17.90625-37.410156-4.792968-62.1875-17.285156-75.484375-37.988281-29.050781-45.246094 1.453125-125.761719 28.367188-196.796875 5.734374-15.144531 11.15625-29.449219 16.070312-43.476562 17.582031-50.179688 48.527344-85.003907 91.984375-103.5 36.390625-15.492188 72.320313-15.492188 87.660156-15.492188 20.351563 0 74.414063 0 120.21875 34.101562 3.320313 2.472657 8.023438 1.785157 10.496094-1.539062 2.472656-3.320312 1.785156-8.019531-1.539063-10.492188-49.789062-37.070312-107.464843-37.070312-129.175781-37.070312-16.257812 0-54.332031 0-93.539062 16.691406-47.496094 20.21875-81.226563 58.015625-100.261719 112.339844-4.851562 13.851562-44.867188 119.460938-52.28125 155.621094-8.695312 42.382812-5.625 74.347656 9.378906 97.714844 13.457032 20.957031 35.929688 34.730468 68.230469 41.707031-4.71875 11.558593-7.191406 24.035156-7.191406 36.597656v14.246094c0 20.445312 16.636719 37.082031 37.085937 37.082031h277.160156c20.445313 0 37.082032-16.636719 37.082032-37.082031v-14.246094c0-12.621094-2.472656-25.074219-7.207032-36.640625 33.484376-7.335938 57.003907-22.273438 69.992188-44.511719 13.691406-23.445312 16.058594-55.105469 7.234375-96.789062zm-47.054687-6.375c0 12.570312-6.65625 23.910156-17 30.175781.242187-6.847656.160156-13.742188-.261719-20.675781-.488281-8.03125-4.394531-15.089844-10.496094-19.6875v-24.261719c15.847656 3.449219 27.757813 17.582031 27.757813 34.449219zm-379.996094 9.5c-.421875 6.929687-.503906 13.824219-.261719 20.675781-10.34375-6.265625-17-17.605469-17-30.175781 0-16.871094 11.910156-31 27.757813-34.449219v24.261719c-6.097657 4.597656-10.007813 11.65625-10.496094 19.6875zm314.257812-14.265625c-29.347656 39.164062-69.089844 55.878906-132.890625 55.878906-63.796875 0-103.539062-16.714844-132.890625-55.878906-5.546875-7.40625-14.113281-11.316406-22.976562-10.851563v-18.453125c6.394531.519532 15.441406.433594 25.214844-2.234375 16.945312-4.621093 39.324218-17.980469 49.722656-55.378906 6.910156-24.851563 32.714844-62.113281 80.929687-62.113281 48.210938 0 74.023438 37.261718 80.933594 62.113281 6.65625 23.949219 18.890625 40.804687 36.355469 50.097656 11.640625 6.195313 23.320312 7.796875 32.292968 7.796875 2.289063 0 4.398438-.105468 6.289063-.265625v18.4375c-8.863281-.464843-17.433594 3.445313-22.980469 10.851563zm-46.839844 136.777344 4.777344-9.742188c3.503906-7.152344 3.265625-15.566406-.636718-22.515625l-5.320313-9.457031c-1.382813-2.457032-1.253906-5.3125.335937-7.640625 1.59375-2.328125 4.210938-3.480469 7.003907-3.082031l10.738281 1.53125c7.890625 1.125 15.820312-1.707032 21.21875-7.566407l7.347656-7.980469c1.910156-2.070312 4.667969-2.839843 7.375-2.039062 2.703125.792969 4.609375 2.929688 5.09375 5.707031l1.863282 10.6875c1.296874 7.441407 5.988281 13.816407 12.640624 17.289063.425782.265625 10.96875 5.074218 10.96875 5.074218 2.5625 1.175782 4.140626 3.5625 4.21875 6.382813.082032 2.816406-1.359374 5.289063-3.851562 6.605469l-9.589844 5.074218c-7.042968 3.730469-11.796875 10.675782-12.71875 18.589844l-1.253906 10.777344c-.328125 2.800781-2.109375 5.039062-4.765625 5.984375-2.660156.949219-5.453125.339844-7.476563-1.621094l-7.789062-7.554687c-4.5625-4.417969-10.617188-6.824219-16.847656-6.824219-1.582032 0-15.398438 2.609375-15.398438 2.609375-2.773437.558594-5.445312-.445312-7.164062-2.679688-1.722656-2.230468-2.011719-5.078124-.769532-7.609374zm-246.714843 66.546874v-14.242187c0-11.71875 2.535156-23.34375 7.363281-33.921875 5.125.71875 10.460938 1.296875 16.007812 1.730469 11.503907 15.121093 25.160157 29.410156 40.886719 42.710937 8.226563 6.957032 20.3125 7.175782 28.742188.515625 5.382812-4.253906 12.007812-9.433593 16.597656-13.015625l16.296875 18.207032c8.839844 9.878906 21.511719 15.542968 34.769531 15.542968 13.253907 0 25.929688-5.664062 34.769531-15.542968l16.296876-18.207032c4.589843 3.582032 11.214843 8.761719 16.597656 13.015625 2.226562 1.757813 4.726562 3.054688 7.367187 3.867188l-6.292969 21.425781h-207.316406c-12.179687 0-22.085937-9.90625-22.085937-22.085938zm245.035156 22.085938 19.078125-64.941406s10.578125-6.277344 15.371094 4.523437l-17.746094 60.417969zm76.292969-22.085938c0 12.179688-9.90625 22.085938-22.082032 22.085938h-21.875l14.925782-50.808594c17.050781 4.421875 23.183594-4.566406 25.777344-8.34375 2.140624 7.375 3.253906 15.058594 3.253906 22.824219zm0 0"/></svg>