<svg height="511pt" viewBox="-20 1 511 511.999" width="511pt" xmlns="http://www.w3.org/2000/svg"><path d="m301.425781 295.773438c4.144531 0 7.5-3.359376 7.5-7.5v-12.453126c0-4.140624-3.355469-7.5-7.5-7.5-4.140625 0-7.5 3.359376-7.5 7.5v12.453126c0 4.140624 3.359375 7.5 7.5 7.5zm0 0"/><path d="m140.113281 295.773438c4.144531 0 7.5-3.359376 7.5-7.5v-12.453126c0-4.140624-3.355469-7.5-7.5-7.5-4.140625 0-7.5 3.359376-7.5 7.5v12.453126c0 4.140624 3.359375 7.5 7.5 7.5zm0 0"/><path d="m220.769531 335.027344c15.636719 0 28.359375-14.445313 28.359375-32.199219s-12.722656-32.195313-28.359375-32.195313-28.355469 14.441407-28.355469 32.195313 12.71875 32.199219 28.355469 32.199219zm0-49.394532c7.367188 0 13.359375 7.714844 13.359375 17.195313 0 9.484375-5.992187 17.199219-13.359375 17.199219-7.363281 0-13.355469-7.714844-13.355469-17.199219 0-9.480469 5.988282-17.195313 13.355469-17.195313zm0 0"/><path d="m467.683594 329.917969-23.027344-63.640625c-5.378906-12.863282-17.226562-13.839844-17.226562-13.839844-1.328126-19.707031-2.367188-47.664062-1.421876-62.65625 2.714844-43.085938-15.511718-89.953125-48.761718-125.367188-39.003906-41.535156-94.574219-64.414062-156.476563-64.414062-61.902343 0-117.472656 22.878906-156.472656 64.414062-33.25 35.414063-51.480469 82.28125-48.761719 125.367188 1.183594 18.761719.792969 39.144531-1.144531 60.59375-4.597656 7.585938-7.25 16.476562-7.25 25.980469 0 4.898437.71875 9.628906 2.03125 14.113281-1.9375 11.519531-4.238281 23.101562-6.867187 34.460938-6.683594 28.855468 5.609374 58.117187 30.109374 73.132812-5.496093 9.976562-9.148437 25.574219-3.960937 37.101562 3.53125 7.851563 9.550781 14.046876 16.960937 17.777344-.203124 2.570313-.308593 21.972656-.308593 21.972656 0 20.449219 16.636719 37.085938 37.082031 37.085938h314.027344c13.605468 0 25.863281-8.59375 30.511718-21.378906l40.835938-112.445313c5.710938-15.546875 5.753906-32.6875.121094-48.257812zm-76.640625-53.253907c.386719-4.453124.597656-8.929687.597656-13.417968v-21.339844c8.386719 1.816406 15.804687 6.632812 20.882813 13.53125-1.347657.871094-21.480469 21.226562-21.480469 21.226562zm-315.8125-201.980468c36.136719-38.488282 87.824219-59.683594 145.539062-59.683594 57.714844 0 109.402344 21.195312 145.539063 59.683594 30.46875 32.449218 47.1875 75.125 44.726562 114.152344-.894531 14.195312-.917968 29.28125-.101562 44.980468-6.691406-4.210937-14.382813-6.847656-22.519532-7.535156-7.960937-12.144531-37.644531-52.492188-101.3125-88.972656-7.402343-4.242188-16.359374-4.46875-23.949218-.609375-7.617188 3.875-19.058594 9.625-27.316406 13.769531-9.433594 4.734375-20.695313 4.734375-30.132813 0-8.277344-4.15625-19.734375-9.914062-27.3125-13.769531-7.59375-3.859375-16.546875-3.632813-23.949219.609375-13.15625 7.535156-25.75 15.773437-37.4375 24.484375-3.320312 2.476562-4.007812 7.175781-1.53125 10.496093 2.476563 3.320313 7.175782 4.007813 10.496094 1.53125 11.207031-8.351562 23.296875-16.257812 35.929688-23.496093 3-1.71875 6.625-1.816407 9.691406-.253907 7.605468 3.867188 19.09375 9.640626 27.386718 13.800782 13.644532 6.851562 29.941407 6.851562 43.589844 0 8.269532-4.148438 19.738282-9.914063 27.386719-13.800782 3.066406-1.5625 6.691406-1.46875 9.691406.253907 63.179688 36.199219 91.554688 76.9375 96.996094 85.402343v27.519532c0 10.800781-1.25 21.535156-3.707031 31.976562l-11.445313 11.722656c-22.945312 25.796876-20.195312 49.164063-20.195312 49.164063-26.742188 30.179687-65.003907 47.492187-105.003907 47.492187h-31.035156c-37.324218 0-72.527344-14.644531-99.117187-41.234374-26.589844-26.589844-41.234375-61.792969-41.234375-99.117188v-27.523438c3.234375-5.050781 14.539062-21.507812 36.339844-41.488281 3.054687-2.800781 3.261718-7.546875.460937-10.597656-2.800781-3.054687-7.542969-3.261719-10.597656-.460937-21.507813 19.714843-33.378907 36.132812-37.96875 43.109374-8.234375.695313-15.902344 3.382813-22.535157 7.578126.820313-15.722657.800782-30.8125-.09375-45.027344-2.464843-39.03125 14.257813-81.707032 44.722657-114.15625zm242.425781 422.316406c1.539062-15.722656 4.492188-30.550781 8.820312-44.257812 2.648438.742187 5.3125 1.410156 7.992188 1.996093l-2.925781 42.261719zm-104.386719-78.398438v78.398438h-74.328125c-1.601562-17.378906-4.832031-33.804688-9.644531-48.988281 16.21875-6.402344 33.230469-16.421875 50.316406-31.535157 8.398438 1.402344 33.65625 2.125 33.65625 2.125zm15 0s25.222657-.738281 33.636719-2.160156c15.859375 14.027344 32.707031 24.570313 50.351562 31.523438-4.820312 15.199218-8.054687 31.640625-9.660156 49.035156h-74.328125zm107.246094 20.984376c-19.347656-4.574219-37.871094-13.757813-55.292969-27.398438 21.898438-6.511719 42.246094-17.84375 59.492188-33.277344zm-313.375-163.230469c0-16.871094 11.910156-31 27.761719-34.449219v21.339844c0 16.664062 2.636718 32.9375 7.707031 48.359375-.070313 0-.136719.007812-.207031.007812-19.445313 0-35.261719-15.816406-35.261719-35.257812zm-5.222656 51.960937c1.351562-5.839844 2.617187-11.742187 3.796875-17.660156 9.179687 9.8125 22.453125 14.925781 42.558594 15.609375 4.882812 10.917969 11.058593 21.289063 18.4375 30.929687-12.644532 5.652344-27.203126 14.660157-39.980469 28.941407-19.996094-11.375-30.160157-34.746094-24.8125-57.820313zm26.8125 79.796875c14.050781-21.507812 33.15625-32.9375 48.136719-38.9375 1.199218 1.277344 20.386718 26.90625 69.394531 43.074219-39.144531 30.625-76.777344 33.179688-102.496094 29.382812-7.347656-1.082031-13.5625-5.800781-16.632813-12.621093-3.078124-6.84375-2.480468-14.65625 1.597657-20.898438zm16.375 66.800781s.039062-16.722656.09375-17.957031c25.421875 2.71875 41.382812-.382812 54.882812-4.15625 4.316407 13.6875 7.265625 28.5 8.800781 44.199219h-41.691406c-12.179687 0-22.085937-9.90625-22.085937-22.085938zm393.371093-101.886718-40.851562 112.472656c-2.496094 6.878906-9.089844 11.5-16.410156 11.5h-13.011719l11.785156-53.117188c.894531-4.042968-1.65625-8.046874-5.699219-8.945312-4.042968-.894531-8.046874 1.65625-8.945312 5.699219l-12.503906 56.363281h-21.257813l10.027344-144.949219c.964844-13 6.507813-25.296875 15.613281-34.625l14.277344-14.632812.007812.003906c0-.003906.003907-.011719.003907-.015625l31.597656-32.375-30.855469 139.074219c-.894531 4.042969 1.667969 7.988281 5.699219 8.945312 5.125 1.21875 8.167969-2.203125 8.945313-5.699219l30.328124-136.707031 21.347657 59c4.4375 12.257813 4.40625 25.75-.097657 38.007813zm0 0"/></svg>